<svg id="Layer_1" data-name="Layer 1" xmlns="http://www.w3.org/2000/svg" viewBox="0 0 403 491.425"><defs><style>.cls-1{fill:#fff;}.cls-2{fill:#999;}.cls-3{fill:gray;}.cls-4,.cls-9{fill:#36106b;}.cls-10,.cls-5{fill:#2e6db2;}.cls-11,.cls-6{fill:#29abe2;}.cls-7{fill:none;stroke:#999;}.cls-10,.cls-11,.cls-12,.cls-13,.cls-14,.cls-15,.cls-16,.cls-17,.cls-7,.cls-8,.cls-9{stroke-miterlimit:10;stroke-width:0.5px;}.cls-8{fill:#d1d1d1;}.cls-10,.cls-11,.cls-12,.cls-13,.cls-14,.cls-15,.cls-16,.cls-17,.cls-8,.cls-9{stroke:#fff;}.cls-10,.cls-11,.cls-12,.cls-13,.cls-14,.cls-15,.cls-16,.cls-17,.cls-18,.cls-8,.cls-9{fill-rule:evenodd;}.cls-12,.cls-19{fill:#cd4071;}.cls-13,.cls-23{fill:#fb835f;}.cls-14,.cls-24{fill:#f5be49;}.cls-15,.cls-20{fill:#338066;}.cls-16,.cls-22{fill:#5bb567;}.cls-17,.cls-21{fill:#9e5b2f;}.cls-18{fill:#4d4d4d;}.cls-25{fill:#333;}</style></defs><rect class="cls-1" x="-1606.223" y="-468.53" width="2165.848" height="1216.752"/><path d="M10.114,6.224a4.33,4.33,0,0,1,1.671,1.968,7.564,7.564,0,0,1,.584,3.12,7.439,7.439,0,0,1-.591,3.1A4.482,4.482,0,0,1,10.1,16.4a4.694,4.694,0,0,1-2.56.688,4.805,4.805,0,0,1-2.576-.672,4.377,4.377,0,0,1-1.68-1.968,7.465,7.465,0,0,1-.591-3.12,7.433,7.433,0,0,1,.591-3.1A4.449,4.449,0,0,1,4.969,6.24a4.725,4.725,0,0,1,2.568-.688A4.806,4.806,0,0,1,10.114,6.224ZM5.585,8.168a5.788,5.788,0,0,0-.672,3.16q0,4.143,2.624,4.144a2.195,2.195,0,0,0,1.945-.992,5.849,5.849,0,0,0,.663-3.168A5.807,5.807,0,0,0,9.482,8.16a2.195,2.195,0,0,0-1.945-.992A2.205,2.205,0,0,0,5.585,8.168Z"/><path d="M20.977,9.32a5.628,5.628,0,0,1,.832,3.288,6.211,6.211,0,0,1-.408,2.328A3.617,3.617,0,0,1,20.24,16.52a2.861,2.861,0,0,1-1.775.568,2.734,2.734,0,0,1-1.256-.288,2.928,2.928,0,0,1-.984-.816l-.128.864H14.289V4.992l2.048-.224V9.344a2.891,2.891,0,0,1,1.016-.888,2.818,2.818,0,0,1,1.32-.312A2.667,2.667,0,0,1,20.977,9.32ZM19.2,14.84a4.177,4.177,0,0,0,.465-2.232,4.362,4.362,0,0,0-.432-2.264,1.371,1.371,0,0,0-1.216-.664,2,2,0,0,0-1.68,1.152v3.744a2.06,2.06,0,0,0,.68.72,1.645,1.645,0,0,0,.888.256A1.462,1.462,0,0,0,19.2,14.84Z"/><path d="M30.721,13.248H25.409a2.686,2.686,0,0,0,.64,1.76,1.98,1.98,0,0,0,1.441.528,3,3,0,0,0,1.055-.184,4.951,4.951,0,0,0,1.056-.568l.848,1.168a4.875,4.875,0,0,1-3.136,1.136A3.778,3.778,0,0,1,24.329,15.9a4.7,4.7,0,0,1-1.048-3.232,5.785,5.785,0,0,1,.448-2.328,3.69,3.69,0,0,1,1.3-1.616,3.46,3.46,0,0,1,2.016-.584,3.444,3.444,0,0,1,2.752,1.128,4.65,4.65,0,0,1,.976,3.144Q30.769,12.577,30.721,13.248Zm-2.416-9.52.832,1.6-3.616,1.44-.576-1.04Zm.432,8.1q0-2.225-1.648-2.224a1.4,1.4,0,0,0-1.176.552,3.283,3.283,0,0,0-.5,1.768h3.328Z"/><path d="M37.986,8.384V9.856l-4.1,5.392h4.177l-.208,1.6H31.537V15.376L35.65,9.984H31.889v-1.6Z"/><path d="M45.945,8.824a2.679,2.679,0,0,1,.631,1.9v6.128H44.529V11.04a1.626,1.626,0,0,0-.264-1.056.972.972,0,0,0-.776-.3,1.52,1.52,0,0,0-.953.328,3.766,3.766,0,0,0-.823.952v5.888H39.665V8.384h1.776l.16,1.1a3.145,3.145,0,0,1,2.576-1.344A2.3,2.3,0,0,1,45.945,8.824Z"/><path d="M51.2,3.728l.832,1.6-3.615,1.44-.576-1.04Zm-.191,4.656v8.464H48.961V8.384Z"/><path d="M64.592,4.992V16.848H62.784l-.143-1.072a2.981,2.981,0,0,1-1.017.96,2.774,2.774,0,0,1-1.4.352,2.727,2.727,0,0,1-2.385-1.2,5.642,5.642,0,0,1-.832-3.264,6.063,6.063,0,0,1,.416-2.312A3.645,3.645,0,0,1,58.616,8.72a3.008,3.008,0,0,1,3.928.336V4.768ZM61.76,15.272a2.725,2.725,0,0,0,.784-.824V10.576A2.912,2.912,0,0,0,61.8,9.9a1.661,1.661,0,0,0-.871-.224,1.46,1.46,0,0,0-1.288.728,4.086,4.086,0,0,0-.473,2.2,4.522,4.522,0,0,0,.416,2.248,1.342,1.342,0,0,0,1.216.68A1.751,1.751,0,0,0,61.76,15.272Z"/><path d="M73.952,13.248H68.641a2.676,2.676,0,0,0,.64,1.76,1.977,1.977,0,0,0,1.44.528,3.007,3.007,0,0,0,1.056-.184,4.946,4.946,0,0,0,1.055-.568l.849,1.168a4.877,4.877,0,0,1-3.137,1.136A3.774,3.774,0,0,1,67.561,15.9a4.7,4.7,0,0,1-1.048-3.232,5.785,5.785,0,0,1,.447-2.328,3.7,3.7,0,0,1,1.3-1.616,3.861,3.861,0,0,1,4.769.544A4.655,4.655,0,0,1,74,12.416C74,12.523,73.985,12.8,73.952,13.248ZM72.4,4.048l.784.9-2.225,2H69.681l-2.225-2,.784-.9,2.081,1.408Zm-.433,7.776q0-2.225-1.647-2.224a1.4,1.4,0,0,0-1.176.552,3.283,3.283,0,0,0-.5,1.768h3.327Z"/><path d="M80.689,16.448a3.293,3.293,0,0,1-1,.48,4.056,4.056,0,0,1-1.128.16,2.517,2.517,0,0,1-1.9-.712,2.921,2.921,0,0,1-.647-2.056V9.856H74.689V8.384h1.328V6.512l2.048-.24V8.384h1.967l-.208,1.472H78.065v4.416a1.456,1.456,0,0,0,.216.9.816.816,0,0,0,.679.272,2.1,2.1,0,0,0,1.009-.3Z"/><path d="M83.784,4.456a1.2,1.2,0,0,1,.361.888,1.178,1.178,0,0,1-.361.88,1.278,1.278,0,0,1-.935.352,1.257,1.257,0,0,1-.92-.352,1.181,1.181,0,0,1-.36-.88,1.207,1.207,0,0,1,.36-.888,1.243,1.243,0,0,1,.92-.36A1.264,1.264,0,0,1,83.784,4.456Zm.1,3.928v8.464H81.841V8.384Z"/><path d="M96.76,15.336a.988.988,0,0,0,.488.36l-.431,1.36A2.625,2.625,0,0,1,95.64,16.7a1.8,1.8,0,0,1-.7-.88,2.723,2.723,0,0,1-1.08.952,3.3,3.3,0,0,1-1.449.312,2.735,2.735,0,0,1-2-.72,2.526,2.526,0,0,1-.736-1.888,2.444,2.444,0,0,1,1-2.1,4.8,4.8,0,0,1,2.856-.728h1.056v-.48a1.458,1.458,0,0,0-.376-1.144A1.814,1.814,0,0,0,93.008,9.7a7.126,7.126,0,0,0-2.239.448l-.481-1.392a8.536,8.536,0,0,1,3.073-.608q3.247,0,3.248,2.912v3.552A1.354,1.354,0,0,0,96.76,15.336Zm-2.168-.776V12.848h-.848q-1.984,0-1.984,1.472a1.357,1.357,0,0,0,.3.944,1.145,1.145,0,0,0,.895.336A1.811,1.811,0,0,0,94.592,14.56Z"/><path d="M110.208,4.992V16.848H108.4l-.144-1.072a2.963,2.963,0,0,1-1.017.96,2.772,2.772,0,0,1-1.4.352,2.727,2.727,0,0,1-2.385-1.2,5.65,5.65,0,0,1-.832-3.264,6.063,6.063,0,0,1,.416-2.312,3.646,3.646,0,0,1,1.193-1.592,3.007,3.007,0,0,1,3.927.336V4.768Zm-2.832,10.28a2.714,2.714,0,0,0,.784-.824V10.576a2.912,2.912,0,0,0-.744-.672,1.661,1.661,0,0,0-.871-.224,1.461,1.461,0,0,0-1.288.728,4.1,4.1,0,0,0-.473,2.2,4.522,4.522,0,0,0,.416,2.248,1.342,1.342,0,0,0,1.216.68A1.749,1.749,0,0,0,107.376,15.272Z"/><path d="M119.049,9.336a4.786,4.786,0,0,1,1.048,3.272,5.414,5.414,0,0,1-.481,2.344,3.639,3.639,0,0,1-1.376,1.576,3.932,3.932,0,0,1-2.127.56,3.708,3.708,0,0,1-2.928-1.192,4.787,4.787,0,0,1-1.056-3.288,5.359,5.359,0,0,1,.48-2.336A3.636,3.636,0,0,1,113.992,8.7a3.98,3.98,0,0,1,2.137-.56A3.685,3.685,0,0,1,119.049,9.336Zm-4.761,3.272a4.216,4.216,0,0,0,.456,2.216,1.666,1.666,0,0,0,2.737-.008,4.22,4.22,0,0,0,.456-2.208,4.173,4.173,0,0,0-.456-2.2,1.5,1.5,0,0,0-1.352-.712Q114.289,9.7,114.288,12.608Z"/><path d="M127.7,9.152l-.8,1.2a3.976,3.976,0,0,0-2.128-.688,1.646,1.646,0,0,0-.945.232.716.716,0,0,0-.335.616.777.777,0,0,0,.143.48,1.321,1.321,0,0,0,.521.36,8.7,8.7,0,0,0,1.112.376,4.861,4.861,0,0,1,2.039.976,2.181,2.181,0,0,1,.664,1.7,2.276,2.276,0,0,1-1.023,1.976,4.358,4.358,0,0,1-2.544.712,5.386,5.386,0,0,1-1.9-.32,4.622,4.622,0,0,1-1.479-.88l1.023-1.152a3.776,3.776,0,0,0,2.3.832,1.951,1.951,0,0,0,1.095-.272.858.858,0,0,0,.409-.752.991.991,0,0,0-.153-.584,1.245,1.245,0,0,0-.544-.384,11.488,11.488,0,0,0-1.223-.408,4.1,4.1,0,0,1-1.905-.984,2.187,2.187,0,0,1-.608-1.576,2.1,2.1,0,0,1,.408-1.264,2.709,2.709,0,0,1,1.153-.88,4.28,4.28,0,0,1,1.7-.32A4.765,4.765,0,0,1,127.7,9.152Z"/><path d="M136.385,9.312a5.942,5.942,0,0,1,.768,3.28,6.448,6.448,0,0,1-.392,2.328,3.549,3.549,0,0,1-1.152,1.592,2.9,2.9,0,0,1-1.8.576,2.64,2.64,0,0,1-2.128-.928v3.952l-2.048.224V8.384h1.792l.111,1.04a3.313,3.313,0,0,1,1.137-.96,2.967,2.967,0,0,1,1.344-.32A2.637,2.637,0,0,1,136.385,9.312Zm-1.376,3.3a4.683,4.683,0,0,0-.4-2.24,1.3,1.3,0,0,0-1.2-.688,1.65,1.65,0,0,0-.96.312,2.725,2.725,0,0,0-.767.84V14.64a1.8,1.8,0,0,0,1.552.88Q135.008,15.52,135.009,12.608Z"/><path d="M141.407,3.728l.833,1.6-3.616,1.44-.576-1.04Zm-.191,4.656v8.464h-2.048V8.384Z"/><path d="M150.481,8.384l-2.752,8.464h-2.448l-2.8-8.464H144.7l1.809,6.816,1.855-6.816Z"/><path d="M157.848,15.336a.983.983,0,0,0,.488.36l-.431,1.36a2.621,2.621,0,0,1-1.177-.352,1.808,1.808,0,0,1-.7-.88,2.71,2.71,0,0,1-1.08.952,3.3,3.3,0,0,1-1.448.312,2.735,2.735,0,0,1-2-.72,2.526,2.526,0,0,1-.736-1.888,2.444,2.444,0,0,1,1-2.1,4.8,4.8,0,0,1,2.856-.728h1.056v-.48a1.458,1.458,0,0,0-.376-1.144A1.814,1.814,0,0,0,154.1,9.7a7.126,7.126,0,0,0-2.239.448l-.481-1.392a8.535,8.535,0,0,1,3.072-.608q3.249,0,3.249,2.912v3.552A1.354,1.354,0,0,0,157.848,15.336Zm-2.168-.776V12.848h-.848q-1.985,0-1.984,1.472a1.352,1.352,0,0,0,.3.944,1.145,1.145,0,0,0,.9.336A1.813,1.813,0,0,0,155.68,14.56Z"/><path d="M162.048,16.1a4.976,4.976,0,0,1-.359,2.04,3.168,3.168,0,0,1-1.017,1.272,8.126,8.126,0,0,1-1.712.912l-.656-1.488a4.923,4.923,0,0,0,.977-.568,1.752,1.752,0,0,0,.536-.76,3.675,3.675,0,0,0,.183-1.28V8.384h2.048Zm-.1-11.64a1.206,1.206,0,0,1,.359.888,1.18,1.18,0,0,1-.359.88,1.283,1.283,0,0,1-.937.352,1.26,1.26,0,0,1-.92-.352,1.184,1.184,0,0,1-.359-.88,1.21,1.21,0,0,1,.359-.888,1.246,1.246,0,0,1,.92-.36A1.269,1.269,0,0,1,161.945,4.456Z"/><path d="M167.007,3.728l.832,1.6-3.615,1.44-.576-1.04Zm-.191,4.656v8.464h-2.048V8.384Z"/><path d="M174.184,8.384a4.012,4.012,0,0,1,1.256.752l-.911,1.232A3.316,3.316,0,0,0,173.7,9.9a2.593,2.593,0,0,0-.881-.144q-1.905,0-1.9,2.9a3.532,3.532,0,0,0,.5,2.12,1.669,1.669,0,0,0,1.408.648,2.286,2.286,0,0,0,.824-.144,5.4,5.4,0,0,0,.889-.464l.911,1.3a4.22,4.22,0,0,1-2.736.976,4.043,4.043,0,0,1-2.112-.536,3.519,3.519,0,0,1-1.376-1.528,5.312,5.312,0,0,1-.479-2.336,5.576,5.576,0,0,1,.479-2.376,3.671,3.671,0,0,1,1.376-1.6,3.829,3.829,0,0,1,2.1-.568A4.384,4.384,0,0,1,174.184,8.384Z"/><path d="M179.167,3.728l.832,1.6-3.615,1.44-.576-1.04Zm-.191,4.656v8.464h-2.048V8.384Z"/><path d="M189.007,4.1a13.146,13.146,0,0,0-1.72,3.288,12.2,12.2,0,0,0-.536,3.864,12.222,12.222,0,0,0,.536,3.856,13.1,13.1,0,0,0,1.72,3.3l-1.311.88q-1.041-1.456-1.641-2.472a10.442,10.442,0,0,1-1-2.4,11.387,11.387,0,0,1-.4-3.16,11.382,11.382,0,0,1,.4-3.16,10.424,10.424,0,0,1,1-2.4q.6-1.017,1.641-2.472Z"/><path d="M196.416,7.6h-4.032v2.672a3.606,3.606,0,0,1,1.632-.4,3.07,3.07,0,0,1,1.6.416,2.817,2.817,0,0,1,1.1,1.2,4.107,4.107,0,0,1,.392,1.856,3.79,3.79,0,0,1-.5,1.952,3.405,3.405,0,0,1-1.409,1.32,4.533,4.533,0,0,1-2.111.472,4.367,4.367,0,0,1-1.9-.392,4.83,4.83,0,0,1-1.5-1.128l1.168-1.088A2.851,2.851,0,0,0,193.04,15.5a1.86,1.86,0,0,0,1.432-.56,2.266,2.266,0,0,0,.519-1.6q0-2-1.727-2a2.585,2.585,0,0,0-.689.088,3.907,3.907,0,0,0-.7.28h-1.456V6.08h6.24Z"/><path d="M198.543,12.656V11.024h4.832v1.632Z"/><path d="M208.751,6.08V16.848h-2.015v-8.7l-2.4,1.456-.9-1.376,3.5-2.144Z"/><path d="M217.375,7.016a4.493,4.493,0,0,1,.977,3.048,8.5,8.5,0,0,1-.656,3.592,5.132,5.132,0,0,1-2.016,2.232,12.428,12.428,0,0,1-3.6,1.36l-.431-1.456a8.619,8.619,0,0,0,3.208-1.448,3.611,3.611,0,0,0,1.3-2.424,2.788,2.788,0,0,1-2.3,1.12,2.881,2.881,0,0,1-1.529-.424,2.925,2.925,0,0,1-1.095-1.224,4.1,4.1,0,0,1-.4-1.856,3.671,3.671,0,0,1,.5-1.928,3.375,3.375,0,0,1,1.353-1.272,4.017,4.017,0,0,1,1.895-.448A3.5,3.5,0,0,1,217.375,7.016Zm-1.119,3.432A5,5,0,0,0,215.88,8.1a1.378,1.378,0,0,0-1.305-.7,1.527,1.527,0,0,0-1.248.544A2.386,2.386,0,0,0,212.88,9.5a2.355,2.355,0,0,0,.424,1.552,1.392,1.392,0,0,0,1.111.5A2.19,2.19,0,0,0,216.256,10.448Z"/><path d="M224.679,16.52a2.213,2.213,0,0,1-.552-1.608V4.992l2.048-.224v10.08c0,.394.16.592.48.592a1.519,1.519,0,0,0,.48-.08l.432,1.44a3.277,3.277,0,0,1-1.36.288A2.034,2.034,0,0,1,224.679,16.52Z"/><path d="M235.743,13.248h-5.311a2.676,2.676,0,0,0,.64,1.76,1.977,1.977,0,0,0,1.44.528,3.007,3.007,0,0,0,1.056-.184,4.946,4.946,0,0,0,1.055-.568l.849,1.168a4.877,4.877,0,0,1-3.137,1.136,3.774,3.774,0,0,1-2.983-1.184,4.7,4.7,0,0,1-1.048-3.232,5.785,5.785,0,0,1,.447-2.328,3.7,3.7,0,0,1,1.3-1.616,3.861,3.861,0,0,1,4.769.544,4.655,4.655,0,0,1,.975,3.144C235.791,12.523,235.776,12.8,235.743,13.248Zm-1.984-1.424q0-2.225-1.647-2.224a1.4,1.4,0,0,0-1.176.552,3.283,3.283,0,0,0-.5,1.768h3.327Z"/><path d="M242.48,16.448a3.293,3.293,0,0,1-1,.48,4.056,4.056,0,0,1-1.128.16,2.517,2.517,0,0,1-1.9-.712,2.921,2.921,0,0,1-.647-2.056V9.856H236.48V8.384h1.328V6.512l2.048-.24V8.384h1.967l-.208,1.472h-1.759v4.416a1.456,1.456,0,0,0,.216.9.816.816,0,0,0,.679.272,2.1,2.1,0,0,0,1.009-.3Z"/><path d="M245.736,5.68a10.587,10.587,0,0,1,1,2.4,11.4,11.4,0,0,1,.4,3.168,11.4,11.4,0,0,1-.4,3.168,10.607,10.607,0,0,1-1,2.4q-.6,1.023-1.64,2.464l-1.3-.88a13.6,13.6,0,0,0,1.712-3.3,12.064,12.064,0,0,0,.544-3.856,11.986,11.986,0,0,0-.544-3.848A13.922,13.922,0,0,0,242.8,4.1l1.3-.88Q245.135,4.656,245.736,5.68Z"/><path d="M259.615,8.384l-2.751,8.464h-2.449l-2.8-8.464h2.224l1.809,6.816L257.5,8.384Z"/><path d="M269.9,8.272l-.352,1.984a3.1,3.1,0,0,0-.752-.1,1.436,1.436,0,0,0-1.184.536,4.1,4.1,0,0,0-.688,1.64v4.512h-2.048V8.384h1.776l.192,1.664a3.036,3.036,0,0,1,.88-1.4,1.99,1.99,0,0,1,1.328-.488A3.011,3.011,0,0,1,269.9,8.272Z"/><path d="M277.079,9.336a4.781,4.781,0,0,1,1.048,3.272,5.429,5.429,0,0,1-.48,2.344,3.652,3.652,0,0,1-1.376,1.576,3.938,3.938,0,0,1-2.128.56,3.708,3.708,0,0,1-2.928-1.192,4.787,4.787,0,0,1-1.056-3.288,5.373,5.373,0,0,1,.48-2.336A3.632,3.632,0,0,1,272.023,8.7a3.974,3.974,0,0,1,2.136-.56A3.685,3.685,0,0,1,277.079,9.336Zm-4.76,3.272a4.207,4.207,0,0,0,.456,2.216,1.665,1.665,0,0,0,2.736-.008,4.211,4.211,0,0,0,.456-2.208,4.164,4.164,0,0,0-.456-2.2,1.5,1.5,0,0,0-1.352-.712Q272.319,9.7,272.319,12.608Z"/><path d="M284.95,8.384a3.99,3.99,0,0,1,1.256.752l-.911,1.232a3.281,3.281,0,0,0-.832-.464,2.584,2.584,0,0,0-.881-.144q-1.9,0-1.9,2.9a3.532,3.532,0,0,0,.5,2.12,1.667,1.667,0,0,0,1.407.648,2.282,2.282,0,0,0,.824-.144,5.4,5.4,0,0,0,.889-.464l.911,1.3a4.22,4.22,0,0,1-2.735.976,4.038,4.038,0,0,1-2.112-.536,3.519,3.519,0,0,1-1.376-1.528,5.3,5.3,0,0,1-.48-2.336,5.561,5.561,0,0,1,.48-2.376,3.671,3.671,0,0,1,1.376-1.6,3.826,3.826,0,0,1,2.1-.568A4.376,4.376,0,0,1,284.95,8.384Z"/><path d="M294.271,13.248h-5.312a2.686,2.686,0,0,0,.64,1.76,1.979,1.979,0,0,0,1.44.528,3.007,3.007,0,0,0,1.056-.184,4.951,4.951,0,0,0,1.056-.568L294,15.952a4.875,4.875,0,0,1-3.136,1.136,3.776,3.776,0,0,1-2.984-1.184,4.7,4.7,0,0,1-1.048-3.232,5.785,5.785,0,0,1,.448-2.328,3.688,3.688,0,0,1,1.3-1.616,3.861,3.861,0,0,1,4.769.544,4.655,4.655,0,0,1,.976,3.144Q294.319,12.577,294.271,13.248Zm-1.985-1.424q0-2.225-1.647-2.224a1.4,1.4,0,0,0-1.176.552,3.283,3.283,0,0,0-.5,1.768h3.327Z"/><path d="M304.535,6.288a2.845,2.845,0,0,1,1.624,2.624,4.086,4.086,0,0,1-.392,1.752,8.06,8.06,0,0,1-1.3,1.864q-.912,1.024-2.672,2.7H306.4l-.224,1.616h-6.7v-1.5q2.048-2.08,2.936-3.08a9.333,9.333,0,0,0,1.264-1.712,3.138,3.138,0,0,0,.376-1.48A1.45,1.45,0,0,0,302.5,7.5a2.206,2.206,0,0,0-1.1.264,3.714,3.714,0,0,0-.984.872l-1.248-.992a4.22,4.22,0,0,1,3.488-1.76A4.121,4.121,0,0,1,304.535,6.288Z"/><path d="M314.488,7.328a7.328,7.328,0,0,1,.983,4.144,7.406,7.406,0,0,1-.983,4.168,3.573,3.573,0,0,1-5.745,0,7.4,7.4,0,0,1-.984-4.168,7.319,7.319,0,0,1,.984-4.144,3.585,3.585,0,0,1,5.745,0Zm-4.2,1.032a8.254,8.254,0,0,0-.416,3.112,8.386,8.386,0,0,0,.416,3.136,1.417,1.417,0,0,0,2.657.008,8.374,8.374,0,0,0,.416-3.144,8.249,8.249,0,0,0-.416-3.12,1.421,1.421,0,0,0-2.657.008Z"/><path d="M321.607,6.256a2.7,2.7,0,0,1,1.168.992,2.539,2.539,0,0,1,.392,1.376,2.391,2.391,0,0,1-.56,1.624,2.957,2.957,0,0,1-1.535.9,2.79,2.79,0,0,1,1.759.768,2.477,2.477,0,0,1,.688,1.856,3.091,3.091,0,0,1-.472,1.68,3.288,3.288,0,0,1-1.351,1.192,4.61,4.61,0,0,1-2.081.44,4.284,4.284,0,0,1-3.488-1.552l1.136-1.088a3.892,3.892,0,0,0,1.072.792,2.717,2.717,0,0,0,1.168.248A1.942,1.942,0,0,0,320.887,15a1.724,1.724,0,0,0,.52-1.32,1.624,1.624,0,0,0-.488-1.328,2.239,2.239,0,0,0-1.448-.4h-.848l.241-1.456h.575a1.794,1.794,0,0,0,1.257-.432,1.547,1.547,0,0,0,.471-1.2,1.3,1.3,0,0,0-.431-1.032,1.694,1.694,0,0,0-1.153-.376,2.707,2.707,0,0,0-1.135.232,3.806,3.806,0,0,0-1.025.712l-1.04-1.136a4.763,4.763,0,0,1,3.376-1.376A4.266,4.266,0,0,1,321.607,6.256Z"/><path d="M331.656,7.328a7.328,7.328,0,0,1,.983,4.144,7.406,7.406,0,0,1-.983,4.168,3.573,3.573,0,0,1-5.745,0,7.4,7.4,0,0,1-.984-4.168,7.319,7.319,0,0,1,.984-4.144,3.585,3.585,0,0,1,5.745,0Zm-4.2,1.032a8.254,8.254,0,0,0-.416,3.112,8.386,8.386,0,0,0,.416,3.136,1.417,1.417,0,0,0,2.657.008,8.374,8.374,0,0,0,.416-3.144,8.249,8.249,0,0,0-.416-3.12,1.421,1.421,0,0,0-2.657.008Z"/><path class="cls-2" d="M143.965,477.8v.74l-3.1,5.35h3.09l-.1.79h-4.01v-.741l3.12-5.369h-2.809v-.77Z"/><path class="cls-2" d="M148.645,477.293v7.39h-.8l-.06-.69a1.549,1.549,0,0,1-1.37.82,1.508,1.508,0,0,1-1.335-.73,3.667,3.667,0,0,1-.475-2.01,4.183,4.183,0,0,1,.235-1.46,2.186,2.186,0,0,1,.665-.975,1.571,1.571,0,0,1,2.24.285v-2.731Zm-1.4,6.61a1.983,1.983,0,0,0,.5-.59v-2.64A1.271,1.271,0,0,0,146.7,480a.946.946,0,0,0-.841.51,2.972,2.972,0,0,0-.3,1.54,3.3,3.3,0,0,0,.28,1.55.869.869,0,0,0,.79.5A1.011,1.011,0,0,0,147.25,483.9Z"/><path class="cls-2" d="M152.875,479.363l-.15.87a1.329,1.329,0,0,0-.41-.06.868.868,0,0,0-.715.35,2.692,2.692,0,0,0-.435,1.07v3.09h-.9v-5.26h.78l.07,1.039q.39-1.158,1.31-1.159A1.5,1.5,0,0,1,152.875,479.363Z"/><path class="cls-2" d="M156.875,480a3.936,3.936,0,0,1-.01,4.064,2.044,2.044,0,0,1-3.145.016,3.929,3.929,0,0,1,0-4.065,2.087,2.087,0,0,1,3.15-.015Zm-2.469.5a2.972,2.972,0,0,0-.311,1.545q0,2.051,1.2,2.05t1.2-2.06a3.041,3.041,0,0,0-.3-1.54.978.978,0,0,0-.89-.49A1,1,0,0,0,154.406,480.508Z"/><path class="cls-2" d="M159.635,484.473a2.916,2.916,0,0,1-.175,1.094,1.722,1.722,0,0,1-.5.691,4.405,4.405,0,0,1-.875.525l-.28-.65a2.374,2.374,0,0,0,.54-.36,1.155,1.155,0,0,0,.29-.48,2.623,2.623,0,0,0,.1-.8v-5.07h.9Zm-.025-7.36a.618.618,0,0,1,0,.835.636.636,0,0,1-.855,0,.565.565,0,0,1-.165-.415.579.579,0,0,1,.165-.42.614.614,0,0,1,.85,0Z"/><path class="cls-2" d="M167.345,477.293v7.39h-.8l-.06-.69a1.551,1.551,0,0,1-1.37.82,1.507,1.507,0,0,1-1.335-.73,3.658,3.658,0,0,1-.475-2.01,4.16,4.16,0,0,1,.235-1.46,2.194,2.194,0,0,1,.665-.975,1.571,1.571,0,0,1,2.24.285v-2.731Zm-1.4,6.61a2,2,0,0,0,.5-.59v-2.64a1.272,1.272,0,0,0-1.05-.67.945.945,0,0,0-.84.51,2.962,2.962,0,0,0-.3,1.54,3.286,3.286,0,0,0,.28,1.55.869.869,0,0,0,.789.5A1,1,0,0,0,165.949,483.9Z"/><path class="cls-2" d="M172.335,483.958a.564.564,0,0,0,.28.234l-.19.611a1.241,1.241,0,0,1-.61-.24.989.989,0,0,1-.31-.55,1.609,1.609,0,0,1-1.431.8,1.452,1.452,0,0,1-1.109-.435,1.634,1.634,0,0,1-.41-1.166,1.543,1.543,0,0,1,.55-1.279,2.452,2.452,0,0,1,1.57-.44h.68v-.45a1.155,1.155,0,0,0-.225-.8A.959.959,0,0,0,170.4,480a3.645,3.645,0,0,0-1.28.28l-.22-.63a4.351,4.351,0,0,1,1.639-.36,1.511,1.511,0,0,1,1.71,1.71v2.48A.973.973,0,0,0,172.335,483.958Zm-.98-.645v-1.24h-.58q-1.3,0-1.3,1.09a1.092,1.092,0,0,0,.21.72.74.74,0,0,0,.6.25A1.169,1.169,0,0,0,171.355,483.313Z"/><path class="cls-2" d="M176.355,484.453a1.862,1.862,0,0,1-1.111.36,1.279,1.279,0,0,1-.984-.371,1.465,1.465,0,0,1-.346-1.039v-3.3h-.75v-.68h.75v-1.211l.9-.109v1.32h1.16l-.1.68h-1.059v3.29q0,.68.57.68a.962.962,0,0,0,.314-.05,2.1,2.1,0,0,0,.326-.15Z"/><path class="cls-2" d="M177.869,480.008a.618.618,0,0,1,.176.445.638.638,0,0,1-.176.45.591.591,0,0,1-.455.19.579.579,0,0,1-.444-.19.642.642,0,0,1-.175-.45.621.621,0,0,1,.175-.445.582.582,0,0,1,.444-.185A.594.594,0,0,1,177.869,480.008Zm0,3.72a.62.62,0,0,1,.176.445.638.638,0,0,1-.176.45.591.591,0,0,1-.455.19.579.579,0,0,1-.444-.19.642.642,0,0,1-.175-.45.623.623,0,0,1,.175-.445.585.585,0,0,1,.444-.185A.6.6,0,0,1,177.869,483.728Z"/><path class="cls-2" d="M185.975,482.663a2.021,2.021,0,0,1-2.2,2.15,2.133,2.133,0,0,1-1.63-.595,2.175,2.175,0,0,1-.561-1.555V477.8h.931v4.8q0,1.449,1.26,1.45t1.259-1.45v-4.8h.941Zm-1.49-7.06.38.73-1.941.79-.239-.47Z"/><path class="cls-2" d="M190.985,477.8v.74l-3.1,5.35h3.09l-.1.79h-4.009v-.741l3.12-5.369h-2.811v-.77Z"/><path class="cls-2" d="M193.115,477.8v6.88h-.93V477.8Z"/><path class="cls-2" d="M197.5,477.873a2.811,2.811,0,0,1,.855.6l-.47.53a2.566,2.566,0,0,0-.675-.445,1.8,1.8,0,0,0-.725-.145,1.153,1.153,0,0,0-.805.275.93.93,0,0,0-.305.725,1.043,1.043,0,0,0,.12.515,1.093,1.093,0,0,0,.411.389,4.182,4.182,0,0,0,.819.356,4.971,4.971,0,0,1,1,.47,1.725,1.725,0,0,1,.6.64,2.283,2.283,0,0,1-.06,2.034,1.891,1.891,0,0,1-.774.731,2.53,2.53,0,0,1-1.186.265,2.87,2.87,0,0,1-2.13-.9l.49-.53a3.011,3.011,0,0,0,.755.5,2.052,2.052,0,0,0,.855.175,1.321,1.321,0,0,0,.945-.335,1.214,1.214,0,0,0,.355-.925,1.124,1.124,0,0,0-.285-.81,2.665,2.665,0,0,0-1.045-.56,3.525,3.525,0,0,1-1.4-.79,1.636,1.636,0,0,1-.425-1.17,1.716,1.716,0,0,1,.97-1.57,2.3,2.3,0,0,1,1.04-.23A2.615,2.615,0,0,1,197.5,477.873Z"/><path class="cls-2" d="M203.464,476.613v9.09h-.84v-9.09Z"/><path class="cls-2" d="M214.524,477.8l-1.9,6.88h-1.109l-1.931-6.88h.96l1.54,5.98,1.521-5.98Z"/><path class="cls-2" d="M216.288,477.113a.6.6,0,0,1-.849.835.561.561,0,0,1-.165-.415.575.575,0,0,1,.165-.42.612.612,0,0,1,.849,0Zm.026,2.31v5.26h-.9v-5.26Z"/><path class="cls-2" d="M220.8,479.423v.67l-2.49,3.849h2.5l-.09.741h-3.4v-.67l2.491-3.85h-2.281v-.74Z"/><path class="cls-2" d="M225.413,484.683h-.78l-.05-.79a1.659,1.659,0,0,1-1.469.92,1.254,1.254,0,0,1-.991-.41,1.625,1.625,0,0,1-.36-1.11v-3.87h.9v3.789a1.069,1.069,0,0,0,.175.676.638.638,0,0,0,.526.215q.669,0,1.149-.88v-3.8h.9Z"/><path class="cls-2" d="M230.4,483.958a.558.558,0,0,0,.279.234l-.19.611a1.249,1.249,0,0,1-.61-.24,1,1,0,0,1-.31-.55,1.608,1.608,0,0,1-1.43.8,1.453,1.453,0,0,1-1.11-.435,1.634,1.634,0,0,1-.41-1.166,1.543,1.543,0,0,1,.55-1.279,2.454,2.454,0,0,1,1.57-.44h.68v-.45a1.155,1.155,0,0,0-.225-.8.959.959,0,0,0-.735-.245,3.645,3.645,0,0,0-1.28.28l-.22-.63a4.352,4.352,0,0,1,1.64-.36,1.511,1.511,0,0,1,1.71,1.71v2.48A.961.961,0,0,0,230.4,483.958Zm-.981-.645v-1.24h-.58q-1.3,0-1.3,1.09a1.1,1.1,0,0,0,.21.72.742.742,0,0,0,.6.25A1.168,1.168,0,0,0,229.423,483.313Z"/><path class="cls-2" d="M232.064,484.523a1.118,1.118,0,0,1-.281-.811v-6.419l.9-.1v6.491c0,.259.106.39.319.39a.831.831,0,0,0,.29-.06l.2.63a1.41,1.41,0,0,1-.67.17A1,1,0,0,1,232.064,484.523Z"/><path class="cls-2" d="M235.348,477.113a.618.618,0,0,1,0,.835.636.636,0,0,1-.855,0,.565.565,0,0,1-.165-.415.579.579,0,0,1,.165-.42.614.614,0,0,1,.85,0Zm.025,2.31v5.26h-.9v-5.26Z"/><path class="cls-2" d="M239.864,479.423v.67l-2.491,3.849h2.5l-.09.741h-3.4v-.67l2.49-3.85h-2.28v-.74Z"/><path class="cls-2" d="M244.194,483.958a.558.558,0,0,0,.279.234l-.19.611a1.249,1.249,0,0,1-.61-.24.988.988,0,0,1-.309-.55,1.61,1.61,0,0,1-1.431.8,1.453,1.453,0,0,1-1.11-.435,1.634,1.634,0,0,1-.41-1.166,1.543,1.543,0,0,1,.55-1.279,2.454,2.454,0,0,1,1.57-.44h.68v-.45a1.16,1.16,0,0,0-.224-.8.963.963,0,0,0-.736-.245,3.645,3.645,0,0,0-1.28.28l-.22-.63a4.352,4.352,0,0,1,1.64-.36A1.511,1.511,0,0,1,244.1,481v2.48A.961.961,0,0,0,244.194,483.958Zm-.981-.645v-1.24h-.58q-1.3,0-1.3,1.09a1.1,1.1,0,0,0,.21.72.742.742,0,0,0,.6.25A1.168,1.168,0,0,0,243.213,483.313Z"/><path class="cls-2" d="M248.323,479.433a2.24,2.24,0,0,1,.67.43l-.4.54a1.907,1.907,0,0,0-.479-.285,1.4,1.4,0,0,0-.521-.095,1.032,1.032,0,0,0-.915.5,2.921,2.921,0,0,0-.325,1.56q0,1.98,1.24,1.98a1.331,1.331,0,0,0,.51-.095,2.438,2.438,0,0,0,.49-.285l.42.55a2.105,2.105,0,0,1-1.45.58,1.943,1.943,0,0,1-1.585-.7,3.113,3.113,0,0,1-.574-2.02,3.822,3.822,0,0,1,.264-1.49,2.181,2.181,0,0,1,.75-.97,1.923,1.923,0,0,1,1.135-.34A2.041,2.041,0,0,1,248.323,479.433Z"/><path class="cls-2" d="M253.483,482.363h-3.06a2.263,2.263,0,0,0,.37,1.325,1.1,1.1,0,0,0,.9.405,1.788,1.788,0,0,0,.645-.11,2.281,2.281,0,0,0,.595-.36l.4.53a2.456,2.456,0,0,1-1.68.66,1.918,1.918,0,0,1-1.595-.715,3.16,3.16,0,0,1-.565-2,3.459,3.459,0,0,1,.539-2.045,1.744,1.744,0,0,1,1.5-.755,1.721,1.721,0,0,1,1.461.675,3.144,3.144,0,0,1,.51,1.925C253.5,482.033,253.5,482.19,253.483,482.363Zm-.85-.74q0-1.65-1.09-1.65a.914.914,0,0,0-.79.415,2.6,2.6,0,0,0-.33,1.345h2.21Z"/><path class="cls-2" d="M255.448,480.008a.621.621,0,0,1,.175.445.642.642,0,0,1-.175.45.594.594,0,0,1-.456.19.579.579,0,0,1-.444-.19.642.642,0,0,1-.175-.45.621.621,0,0,1,.175-.445.582.582,0,0,1,.444-.185A.6.6,0,0,1,255.448,480.008Zm0,3.72a.623.623,0,0,1,.175.445.642.642,0,0,1-.175.45.594.594,0,0,1-.456.19.579.579,0,0,1-.444-.19.642.642,0,0,1-.175-.45.623.623,0,0,1,.175-.445.585.585,0,0,1,.444-.185A.6.6,0,0,1,255.448,483.728Z"/><path class="cls-2" d="M260.1,477.113a.618.618,0,0,1,0,.835.593.593,0,0,1-1.021-.415.583.583,0,0,1,.165-.42.615.615,0,0,1,.851,0Zm.024,2.31v5.26h-.9v-5.26Z"/><path class="cls-2" d="M265.162,484.683l-1.479-2.93h-.971v2.93h-.93V477.8h1.611q2.459,0,2.46,1.94a1.96,1.96,0,0,1-.33,1.15,1.9,1.9,0,0,1-.97.69l1.64,3.1Zm-.63-3.955a1.259,1.259,0,0,0,.351-.985,1.153,1.153,0,0,0-.355-.93,1.786,1.786,0,0,0-1.156-.3h-.66v2.53h.75A1.558,1.558,0,0,0,264.532,480.728Z"/><path class="cls-2" d="M271.368,478.578a5.378,5.378,0,0,1,0,5.315,2.513,2.513,0,0,1-3.875.015,4.26,4.26,0,0,1-.7-2.655,5.24,5.24,0,0,1,.325-1.955,2.6,2.6,0,0,1,.92-1.215,2.4,2.4,0,0,1,1.395-.41A2.317,2.317,0,0,1,271.368,478.578Zm-3.595,2.675q0,2.81,1.66,2.81a1.372,1.372,0,0,0,1.24-.67,5.682,5.682,0,0,0,0-4.3,1.368,1.368,0,0,0-1.235-.68Q267.773,478.413,267.773,481.253Z"/><path class="cls-2" d="M276.693,477.8v.74l-3.1,5.35h3.09l-.1.79h-4.009v-.741l3.12-5.369h-2.81v-.77Z"/><path class="cls-2" d="M281.323,484.683v-3.23h-2.5v3.23h-.93V477.8h.93v2.889h2.5V477.8h.929v6.88Z"/><path class="cls-2" d="M284.882,477.8v6.09h2.511l-.1.79h-3.34V477.8Z"/><path class="cls-2" d="M291.762,484.683l-.46-1.75h-2.31l-.46,1.75h-.93l1.99-6.88h1.141l1.989,6.88Zm-2.58-2.48h1.931l-.96-3.66Z"/><path class="cls-2" d="M296.337,477.873a2.8,2.8,0,0,1,.856.6l-.47.53a2.587,2.587,0,0,0-.676-.445,1.8,1.8,0,0,0-.724-.145,1.153,1.153,0,0,0-.805.275.927.927,0,0,0-.306.725,1.043,1.043,0,0,0,.12.515,1.1,1.1,0,0,0,.41.389,4.264,4.264,0,0,0,.821.356,5.025,5.025,0,0,1,1,.47,1.714,1.714,0,0,1,.6.64,2.287,2.287,0,0,1-.059,2.034,1.89,1.89,0,0,1-.776.731,2.522,2.522,0,0,1-1.184.265,2.867,2.867,0,0,1-2.13-.9l.489-.53a3.047,3.047,0,0,0,.755.5,2.056,2.056,0,0,0,.856.175,1.323,1.323,0,0,0,.945-.335,1.214,1.214,0,0,0,.354-.925,1.12,1.12,0,0,0-.285-.81,2.65,2.65,0,0,0-1.045-.56,3.528,3.528,0,0,1-1.394-.79,1.632,1.632,0,0,1-.425-1.17,1.716,1.716,0,0,1,.97-1.57,2.3,2.3,0,0,1,1.04-.23A2.613,2.613,0,0,1,296.337,477.873Z"/><path class="cls-2" d="M299.257,483.728a.627.627,0,0,1,.175.445.646.646,0,0,1-.175.45.592.592,0,0,1-.455.19.581.581,0,0,1-.445-.19.642.642,0,0,1-.175-.45.623.623,0,0,1,.175-.445.588.588,0,0,1,.445-.185A.6.6,0,0,1,299.257,483.728Z"/><path class="cls-2" d="M303.182,479.433a2.24,2.24,0,0,1,.67.43l-.4.54a1.894,1.894,0,0,0-.48-.285,1.386,1.386,0,0,0-.52-.095,1.032,1.032,0,0,0-.915.5,2.93,2.93,0,0,0-.325,1.56q0,1.98,1.24,1.98a1.328,1.328,0,0,0,.51-.095,2.41,2.41,0,0,0,.49-.285l.42.55a2.1,2.1,0,0,1-1.45.58,1.94,1.94,0,0,1-1.585-.7,3.107,3.107,0,0,1-.575-2.02,3.822,3.822,0,0,1,.265-1.49,2.167,2.167,0,0,1,.75-.97,1.925,1.925,0,0,1,1.135-.34A2.045,2.045,0,0,1,303.182,479.433Z"/><path class="cls-2" d="M307.733,479.423v.67l-2.491,3.849h2.5l-.089.741h-3.4v-.67l2.49-3.85h-2.28v-.74Z"/><path class="cls-2" d="M309.482,483.723a.617.617,0,0,1,.17.44,1.009,1.009,0,0,1-.045.29c-.03.1-.078.243-.145.43l-.55,1.41h-.56l.37-1.59a.6.6,0,0,1-.29-.53.618.618,0,0,1,.175-.45.6.6,0,0,1,.445-.18A.568.568,0,0,1,309.482,483.723Z"/><path class="cls-2" d="M314.222,477.8v6.88h-.931V477.8Zm3.38,0-2.33,3.139,2.49,3.741h-1.07l-2.43-3.68,2.35-3.2Z"/><path class="cls-2" d="M321.152,479.363l-.151.87a1.313,1.313,0,0,0-.409-.06.87.87,0,0,0-.716.35,2.708,2.708,0,0,0-.434,1.07v3.09h-.9v-5.26h.781l.07,1.039q.39-1.158,1.309-1.159A1.507,1.507,0,0,1,321.152,479.363Z"/><path class="cls-2" d="M322.906,477.113a.618.618,0,0,1,0,.835.636.636,0,0,1-.855,0,.565.565,0,0,1-.165-.415.579.579,0,0,1,.165-.42.614.614,0,0,1,.85,0Zm.025,2.31v5.26h-.9v-5.26Z"/><path class="cls-2" d="M327.531,479.893l-.379.53a3.018,3.018,0,0,0-.6-.33,1.6,1.6,0,0,0-.59-.11.977.977,0,0,0-.644.195.654.654,0,0,0-.236.534.643.643,0,0,0,.226.521,2.7,2.7,0,0,0,.854.39,2.837,2.837,0,0,1,1.151.61,1.341,1.341,0,0,1,.359.99,1.4,1.4,0,0,1-.54,1.165,2.114,2.114,0,0,1-1.35.425,2.515,2.515,0,0,1-1.809-.71l.46-.5a2.088,2.088,0,0,0,1.329.51,1.091,1.091,0,0,0,.711-.22.743.743,0,0,0,.269-.61.923.923,0,0,0-.094-.45.837.837,0,0,0-.34-.305,4.212,4.212,0,0,0-.716-.285,2.628,2.628,0,0,1-1.08-.6,1.246,1.246,0,0,1-.329-.89,1.319,1.319,0,0,1,.22-.75,1.5,1.5,0,0,1,.609-.52,2.032,2.032,0,0,1,.9-.19A2.438,2.438,0,0,1,327.531,479.893Z"/><path class="cls-2" d="M331.311,484.453a1.861,1.861,0,0,1-1.11.36,1.281,1.281,0,0,1-.985-.371,1.464,1.464,0,0,1-.345-1.039v-3.3h-.75v-.68h.75v-1.211l.9-.109v1.32h1.16l-.1.68h-1.06v3.29q0,.68.57.68a.972.972,0,0,0,.315-.05,2.137,2.137,0,0,0,.325-.15Z"/><path class="cls-2" d="M333.2,476.712l.38.721-1.92.87-.259-.46Zm-.21,2.711v5.26h-.9v-5.26Z"/><path class="cls-2" d="M337.946,479.708a1.7,1.7,0,0,1,.355,1.145v3.83h-.9v-3.721a1.238,1.238,0,0,0-.17-.734.61.61,0,0,0-.52-.225q-.66,0-1.2.939v3.741h-.9v-5.26h.78l.07.78a1.774,1.774,0,0,1,1.5-.91A1.226,1.226,0,0,1,337.946,479.708Z"/><path class="cls-2" d="M343.251,483.958a.569.569,0,0,0,.28.234l-.19.611a1.241,1.241,0,0,1-.609-.24,1,1,0,0,1-.311-.55,1.606,1.606,0,0,1-1.43.8,1.454,1.454,0,0,1-1.11-.435,1.634,1.634,0,0,1-.409-1.166,1.54,1.54,0,0,1,.55-1.279,2.451,2.451,0,0,1,1.569-.44h.681v-.45a1.149,1.149,0,0,0-.226-.8.955.955,0,0,0-.734-.245,3.649,3.649,0,0,0-1.281.28l-.219-.63a4.347,4.347,0,0,1,1.639-.36,1.511,1.511,0,0,1,1.71,1.71v2.48A.986.986,0,0,0,343.251,483.958Zm-.979-.645v-1.24h-.58c-.868,0-1.3.363-1.3,1.09a1.087,1.087,0,0,0,.21.72.74.74,0,0,0,.6.25A1.169,1.169,0,0,0,342.272,483.313Z"/><path class="cls-2" d="M350.691,477.8v.74l-3.1,5.35h3.091l-.1.79h-4.009v-.741l3.12-5.369H346.88v-.77Z"/><path class="cls-2" d="M355.071,483.958a.56.56,0,0,0,.28.234l-.191.611a1.25,1.25,0,0,1-.609-.24,1,1,0,0,1-.311-.55,1.6,1.6,0,0,1-1.429.8,1.455,1.455,0,0,1-1.111-.435,1.634,1.634,0,0,1-.409-1.166,1.54,1.54,0,0,1,.55-1.279,2.453,2.453,0,0,1,1.569-.44h.681v-.45a1.149,1.149,0,0,0-.226-.8.955.955,0,0,0-.734-.245,3.64,3.64,0,0,0-1.28.28l-.22-.63a4.348,4.348,0,0,1,1.64-.36,1.512,1.512,0,0,1,1.71,1.71v2.48A.974.974,0,0,0,355.071,483.958Zm-1.15-7.246.38.721-1.92.87-.26-.46Zm.17,6.6v-1.24h-.58q-1.3,0-1.3,1.09a1.092,1.092,0,0,0,.21.72.742.742,0,0,0,.6.25A1.168,1.168,0,0,0,354.091,483.313Z"/><path class="cls-2" d="M357.5,477.192v7.491h-.9v-7.39Zm2.771,2.231-1.781,2.34,1.951,2.92h-1l-1.891-2.88,1.78-2.38Z"/><path class="cls-2" d="M364.571,480a3.942,3.942,0,0,1-.01,4.064,2.045,2.045,0,0,1-3.146.016,3.929,3.929,0,0,1,0-4.065,2.089,2.089,0,0,1,3.151-.015Zm-2.47.5a2.982,2.982,0,0,0-.311,1.545q0,2.051,1.2,2.05t1.2-2.06a3.041,3.041,0,0,0-.3-1.54.978.978,0,0,0-.891-.49A1,1,0,0,0,362.1,480.508Z"/><path class="cls-2" d="M370,480a3.909,3.909,0,0,1,.435,2.03,3.707,3.707,0,0,1-.484,2.03,1.531,1.531,0,0,1-1.356.75,1.512,1.512,0,0,1-1.26-.63v2.5l-.9.11v-7.37h.79l.051.71a1.634,1.634,0,0,1,1.429-.84A1.42,1.42,0,0,1,370,480Zm-.5,2.04a3.527,3.527,0,0,0-.254-1.555.828.828,0,0,0-.776-.485.99.99,0,0,0-.62.209,2.423,2.423,0,0,0-.51.571v2.659a1.213,1.213,0,0,0,1.05.651Q369.49,484.093,369.49,482.043Z"/><path class="cls-2" d="M374.351,479.433a2.252,2.252,0,0,1,.67.43l-.4.54a1.89,1.89,0,0,0-.479-.285,1.391,1.391,0,0,0-.521-.095,1.033,1.033,0,0,0-.915.5,2.932,2.932,0,0,0-.324,1.56q0,1.98,1.239,1.98a1.336,1.336,0,0,0,.511-.095,2.379,2.379,0,0,0,.489-.285l.42.55a2.1,2.1,0,0,1-1.449.58,1.94,1.94,0,0,1-1.585-.7,3.107,3.107,0,0,1-.575-2.02,3.822,3.822,0,0,1,.265-1.49,2.167,2.167,0,0,1,.75-.97,1.924,1.924,0,0,1,1.134-.34A2.046,2.046,0,0,1,374.351,479.433Zm.359-2.58.351.4-1.21,1.16h-.561l-1.21-1.16.351-.4,1.14.88Z"/><path class="cls-2" d="M379.3,483.958a.564.564,0,0,0,.28.234l-.19.611a1.241,1.241,0,0,1-.609-.24,1,1,0,0,1-.311-.55,1.606,1.606,0,0,1-1.43.8,1.451,1.451,0,0,1-1.11-.435,1.629,1.629,0,0,1-.409-1.166,1.537,1.537,0,0,1,.55-1.279,2.451,2.451,0,0,1,1.569-.44h.681v-.45a1.155,1.155,0,0,0-.226-.8.956.956,0,0,0-.734-.245,3.645,3.645,0,0,0-1.281.28l-.219-.63a4.343,4.343,0,0,1,1.639-.36,1.511,1.511,0,0,1,1.71,1.71v2.48A.974.974,0,0,0,379.3,483.958Zm-.979-.645v-1.24h-.581q-1.3,0-1.3,1.09a1.087,1.087,0,0,0,.21.72.738.738,0,0,0,.6.25A1.17,1.17,0,0,0,378.321,483.313Z"/><path class="cls-2" d="M384.165,479.708a1.7,1.7,0,0,1,.356,1.145v3.83h-.9v-3.721a1.231,1.231,0,0,0-.17-.734.608.608,0,0,0-.519-.225q-.661,0-1.2.939v3.741h-.9v-5.26h.781l.07.78a1.774,1.774,0,0,1,1.5-.91A1.223,1.223,0,0,1,384.165,479.708Z"/><path class="cls-2" d="M389.5,480a3.936,3.936,0,0,1-.01,4.064,2.044,2.044,0,0,1-3.145.016,3.929,3.929,0,0,1,0-4.065A2.087,2.087,0,0,1,389.5,480Zm-2.469.5a2.972,2.972,0,0,0-.311,1.545q0,2.051,1.2,2.05t1.2-2.06a3.042,3.042,0,0,0-.3-1.54.98.98,0,0,0-.891-.49A1,1,0,0,0,387.031,480.508Z"/><path class="cls-2" d="M394.87,479.423l-1.57,5.26h-1.08l-1.62-5.26h.94l1.22,4.5,1.21-4.5Z"/><path class="cls-2" d="M399,483.958a.567.567,0,0,0,.281.234l-.191.611a1.241,1.241,0,0,1-.609-.24,1,1,0,0,1-.311-.55,1.606,1.606,0,0,1-1.43.8,1.454,1.454,0,0,1-1.11-.435,1.634,1.634,0,0,1-.409-1.166,1.54,1.54,0,0,1,.55-1.279,2.451,2.451,0,0,1,1.569-.44h.681v-.45a1.149,1.149,0,0,0-.226-.8.955.955,0,0,0-.734-.245,3.64,3.64,0,0,0-1.28.28l-.22-.63a4.347,4.347,0,0,1,1.639-.36,1.511,1.511,0,0,1,1.71,1.71v2.48A.986.986,0,0,0,399,483.958Zm-1.149-7.246.38.721-1.92.87-.26-.46Zm.17,6.6v-1.24h-.58c-.868,0-1.3.363-1.3,1.09a1.087,1.087,0,0,0,.21.72.74.74,0,0,0,.6.25A1.169,1.169,0,0,0,398.021,483.313Z"/><path class="cls-3" d="M233.8,321.111v1.224l-3.828,5.772h3.864l-.168,1.3h-5.544v-1.212l3.9-5.82h-3.5v-1.26Z"/><path class="cls-3" d="M240.2,323.757a4.225,4.225,0,0,1,.624,2.466,4.657,4.657,0,0,1-.307,1.746,2.713,2.713,0,0,1-.87,1.188,2.145,2.145,0,0,1-1.332.426,2.053,2.053,0,0,1-.942-.216,2.2,2.2,0,0,1-.738-.612l-.1.648h-1.356v-8.892l1.536-.168v3.432a2.164,2.164,0,0,1,.762-.666,2.116,2.116,0,0,1,.99-.234A2,2,0,0,1,240.2,323.757Zm-1.332,4.14a3.148,3.148,0,0,0,.347-1.674,3.272,3.272,0,0,0-.324-1.7,1.028,1.028,0,0,0-.912-.5,1.5,1.5,0,0,0-1.26.864V327.7a1.543,1.543,0,0,0,.51.54,1.232,1.232,0,0,0,.666.192A1.1,1.1,0,0,0,238.863,327.9Z"/><path class="cls-3" d="M245.33,329.427a3.9,3.9,0,0,1-1.164,1.83,3.7,3.7,0,0,1-2.135.762l-.157-1.116a3.84,3.84,0,0,0,1-.27,1.631,1.631,0,0,0,.607-.462,3.156,3.156,0,0,0,.42-.768h-.529l-2.015-6.348h1.631l1.38,5.328,1.44-5.328h1.584Z"/><path class="cls-3" d="M251.965,329.1a2.456,2.456,0,0,1-.75.36,3.019,3.019,0,0,1-.846.12,1.881,1.881,0,0,1-1.421-.534,2.183,2.183,0,0,1-.487-1.542v-3.348h-1v-1.1h1v-1.4l1.536-.18v1.584h1.477l-.156,1.1H250v3.312a1.1,1.1,0,0,0,.162.672.614.614,0,0,0,.51.2,1.561,1.561,0,0,0,.756-.228Z"/><path class="cls-3" d="M257.8,326.7h-3.983a2.021,2.021,0,0,0,.479,1.32,1.486,1.486,0,0,0,1.08.4,2.255,2.255,0,0,0,.792-.138,3.7,3.7,0,0,0,.792-.426l.636.876a3.652,3.652,0,0,1-2.352.852A2.834,2.834,0,0,1,253,328.7a3.533,3.533,0,0,1-.786-2.424,4.343,4.343,0,0,1,.336-1.746,2.773,2.773,0,0,1,.973-1.212,2.894,2.894,0,0,1,3.576.408,3.494,3.494,0,0,1,.731,2.358C257.833,326.159,257.822,326.367,257.8,326.7Zm-1.487-1.068q0-1.668-1.237-1.668a1.049,1.049,0,0,0-.881.414,2.467,2.467,0,0,0-.378,1.326h2.5Z"/><path class="cls-3" d="M260.749,320.343v9.06h-1.536v-8.892Zm3.8,2.712-2.111,2.8,2.315,3.552h-1.764l-2.184-3.468,2.124-2.88Z"/><path class="cls-3" d="M272.881,323.631l-.6.9a2.979,2.979,0,0,0-1.6-.516,1.233,1.233,0,0,0-.708.174.536.536,0,0,0-.252.462.589.589,0,0,0,.107.36.988.988,0,0,0,.391.27,6.475,6.475,0,0,0,.834.282,3.661,3.661,0,0,1,1.529.732,1.638,1.638,0,0,1,.5,1.272,1.707,1.707,0,0,1-.767,1.482,3.265,3.265,0,0,1-1.909.534,4.024,4.024,0,0,1-1.421-.24,3.467,3.467,0,0,1-1.111-.66l.769-.864a2.832,2.832,0,0,0,1.727.624,1.468,1.468,0,0,0,.823-.2.642.642,0,0,0,.3-.564.756.756,0,0,0-.113-.438.945.945,0,0,0-.408-.288,8.642,8.642,0,0,0-.918-.306,3.07,3.07,0,0,1-1.429-.738,1.637,1.637,0,0,1-.455-1.182,1.57,1.57,0,0,1,.306-.948,2.03,2.03,0,0,1,.864-.66,3.207,3.207,0,0,1,1.277-.24A3.567,3.567,0,0,1,272.881,323.631Z"/><path class="cls-3" d="M279.218,323.055l-2.064,6.348h-1.836l-2.1-6.348h1.668l1.355,5.112,1.393-5.112Z"/><path class="cls-3" d="M285.266,326.7h-3.984a2.016,2.016,0,0,0,.48,1.32,1.485,1.485,0,0,0,1.08.4,2.259,2.259,0,0,0,.792-.138,3.7,3.7,0,0,0,.792-.426l.636.876a3.654,3.654,0,0,1-2.352.852,2.831,2.831,0,0,1-2.238-.888,3.528,3.528,0,0,1-.786-2.424,4.343,4.343,0,0,1,.336-1.746,2.771,2.771,0,0,1,.972-1.212,2.9,2.9,0,0,1,3.577.408,3.494,3.494,0,0,1,.731,2.358Q285.3,326.2,285.266,326.7Zm-1.164-6.9.588.672-1.668,1.5h-.96l-1.668-1.5.588-.672,1.56,1.056Zm-.323,5.832q0-1.668-1.237-1.668a1.05,1.05,0,0,0-.882.414,2.476,2.476,0,0,0-.378,1.326h2.5Z"/><path class="cls-3" d="M290.318,329.1a2.456,2.456,0,0,1-.75.36,3.024,3.024,0,0,1-.846.12,1.884,1.884,0,0,1-1.422-.534,2.187,2.187,0,0,1-.486-1.542v-3.348h-1v-1.1h1v-1.4l1.536-.18v1.584h1.476l-.156,1.1h-1.32v3.312a1.1,1.1,0,0,0,.162.672.612.612,0,0,0,.51.2,1.567,1.567,0,0,0,.756-.228Z"/><path class="cls-3" d="M295.868,328.269a.729.729,0,0,0,.366.27l-.324,1.02a1.963,1.963,0,0,1-.882-.264,1.349,1.349,0,0,1-.522-.66,2.034,2.034,0,0,1-.81.714,2.471,2.471,0,0,1-1.086.234,2.053,2.053,0,0,1-1.5-.54,1.888,1.888,0,0,1-.552-1.416,1.832,1.832,0,0,1,.75-1.578,3.6,3.6,0,0,1,2.141-.546h.792v-.36a1.1,1.1,0,0,0-.281-.858,1.363,1.363,0,0,0-.906-.246,5.355,5.355,0,0,0-1.68.336l-.36-1.044a6.408,6.408,0,0,1,2.3-.456q2.436,0,2.436,2.184v2.664A1.019,1.019,0,0,0,295.868,328.269Zm-1.627-.582V326.4h-.635q-1.488,0-1.488,1.1a1.018,1.018,0,0,0,.228.708.86.86,0,0,0,.672.252A1.356,1.356,0,0,0,294.241,327.687Z"/><path class="cls-4" d="M232.075,117.35a4,4,0,0,1,1.105.66l-.805.936a2.42,2.42,0,0,0-1.536-.588,1.76,1.76,0,0,0-1.481.744,5.152,5.152,0,0,0-.006,4.656,1.746,1.746,0,0,0,1.487.756,2.1,2.1,0,0,0,.876-.174,4.431,4.431,0,0,0,.816-.5l.745.936a3.418,3.418,0,0,1-1.063.72,3.461,3.461,0,0,1-1.433.288,3.6,3.6,0,0,1-1.909-.5,3.333,3.333,0,0,1-1.284-1.482,5.547,5.547,0,0,1-.456-2.358,5.251,5.251,0,0,1,.475-2.328,3.37,3.37,0,0,1,3.149-1.98A3.682,3.682,0,0,1,232.075,117.35Zm.313-2.88.588.672-1.668,1.44h-.96l-1.668-1.44.588-.672,1.559,1Z"/><path class="cls-4" d="M236.035,115.766l.624,1.2-2.711,1.08-.432-.78Zm-.143,3.492v6.348h-1.536v-6.348Z"/><path class="cls-4" d="M242.449,119.588a2,2,0,0,1,.475,1.422v4.6h-1.536V121.25a1.219,1.219,0,0,0-.2-.792.729.729,0,0,0-.582-.228,1.138,1.138,0,0,0-.714.246,2.807,2.807,0,0,0-.618.714v4.416H237.74v-6.348h1.332l.12.828a2.357,2.357,0,0,1,1.931-1.008A1.718,1.718,0,0,1,242.449,119.588Z"/><path class="cls-4" d="M249.518,124.472a.722.722,0,0,0,.365.27l-.323,1.02a1.967,1.967,0,0,1-.883-.264,1.348,1.348,0,0,1-.521-.66,2.037,2.037,0,0,1-.811.714,2.468,2.468,0,0,1-1.086.234,2.053,2.053,0,0,1-1.5-.54,1.892,1.892,0,0,1-.552-1.416,1.832,1.832,0,0,1,.75-1.578,3.6,3.6,0,0,1,2.142-.546h.792v-.36a1.1,1.1,0,0,0-.281-.858,1.368,1.368,0,0,0-.907-.246,5.35,5.35,0,0,0-1.679.336l-.361-1.044a6.412,6.412,0,0,1,2.3-.456q2.436,0,2.437,2.184v2.664A1.019,1.019,0,0,0,249.518,124.472Zm-1.627-.582v-1.284h-.636q-1.488,0-1.487,1.1a1.018,1.018,0,0,0,.227.708.862.862,0,0,0,.672.252A1.358,1.358,0,0,0,247.891,123.89Z"/><path class="cls-4" d="M252.367,124.322a.8.8,0,0,1,.24.588,2.119,2.119,0,0,1-.216.852l-.8,1.836H250.8l.48-1.992a.843.843,0,0,1-.245-.3.861.861,0,0,1-.091-.4.82.82,0,0,1,.828-.828A.814.814,0,0,1,252.367,124.322Z"/><path class="cls-4" d="M261.21,120.614a2.053,2.053,0,0,1,.805.864,3.022,3.022,0,0,1,.3,1.4,3.215,3.215,0,0,1-.342,1.506,2.516,2.516,0,0,1-.924,1.008,2.437,2.437,0,0,1-1.29.354,2.244,2.244,0,0,1-2.053-1.038,5.424,5.424,0,0,1-.647-2.874,6.612,6.612,0,0,1,.366-2.3,3.422,3.422,0,0,1,1.05-1.536,2.518,2.518,0,0,1,1.62-.546,2.936,2.936,0,0,1,1.655.492l-.431.732a2.31,2.31,0,0,0-1.237-.348,1.539,1.539,0,0,0-1.367.828,4.565,4.565,0,0,0-.553,2.22,2.27,2.27,0,0,1,1.933-1.056A2.208,2.208,0,0,1,261.21,120.614Zm-.384,3.732a2.438,2.438,0,0,0,.372-1.428q0-1.716-1.295-1.716a1.725,1.725,0,0,0-.972.294,2.5,2.5,0,0,0-.756.81,4.074,4.074,0,0,0,.414,1.944,1.272,1.272,0,0,0,1.17.624A1.225,1.225,0,0,0,260.826,124.346Z"/><path class="cls-4" d="M266.653,117.746a2.1,2.1,0,0,1,1.146,1.908,3.147,3.147,0,0,1-.33,1.4,6.894,6.894,0,0,1-1.015,1.452q-.684.78-2.076,2.172h3.612l-.131.924h-4.741v-.876q1.609-1.668,2.281-2.442a6.9,6.9,0,0,0,.96-1.35,2.726,2.726,0,0,0,.288-1.236,1.234,1.234,0,0,0-1.321-1.332,1.768,1.768,0,0,0-.864.2,3.159,3.159,0,0,0-.792.672l-.72-.576a3.332,3.332,0,0,1,1.092-.912,2.971,2.971,0,0,1,1.345-.3A2.68,2.68,0,0,1,266.653,117.746Z"/><path class="cls-4" d="M280.507,119.66a2.034,2.034,0,0,1,.468,1.41v4.536H279.87v-4.38q0-1.224-.887-1.224a1.194,1.194,0,0,0-.792.27,3.778,3.778,0,0,0-.7.846v4.488h-1.1v-4.38q0-1.224-.888-1.224a1.2,1.2,0,0,0-.805.276,3.81,3.81,0,0,0-.683.84v4.488h-1.1v-6.324h.949l.1.924a2.12,2.12,0,0,1,1.825-1.068,1.664,1.664,0,0,1,1,.3,1.638,1.638,0,0,1,.593.84,2.974,2.974,0,0,1,.823-.846,1.9,1.9,0,0,1,1.062-.294A1.594,1.594,0,0,1,280.507,119.66Z"/><path class="cls-4" d="M284.3,116.462a.733.733,0,0,1,.216.54.713.713,0,0,1-.216.534.775.775,0,0,1-.564.21.759.759,0,0,1-.552-.21.713.713,0,0,1-.216-.534.733.733,0,0,1,.216-.54.748.748,0,0,1,.552-.216A.763.763,0,0,1,284.3,116.462Zm0,2.82v6.324h-1.1v-6.324Z"/><path class="cls-4" d="M286.872,125.384a1.419,1.419,0,0,1-.353-1.026v-7.62l1.1-.132v7.728a.646.646,0,0,0,.091.384.357.357,0,0,0,.306.12,1.1,1.1,0,0,0,.408-.072l.288.768a1.8,1.8,0,0,1-.876.216A1.285,1.285,0,0,1,286.872,125.384Z"/><path class="cls-4" d="M291.031,124.322a.8.8,0,0,1,.24.588.82.82,0,0,1-.24.594.8.8,0,0,1-.6.246.79.79,0,0,1-.588-.246.82.82,0,0,1-.24-.594.82.82,0,0,1,.828-.828A.814.814,0,0,1,291.031,124.322Z"/><path class="cls-5" d="M229.171,179.639v8.292h-1.584v-8.292Z"/><path class="cls-5" d="M235.778,181.913a2.009,2.009,0,0,1,.474,1.422v4.6h-1.536v-4.356a1.219,1.219,0,0,0-.2-.792.729.729,0,0,0-.582-.228,1.138,1.138,0,0,0-.714.246,2.807,2.807,0,0,0-.618.714v4.416h-1.536v-6.348H232.4l.12.828a2.357,2.357,0,0,1,1.931-1.008A1.722,1.722,0,0,1,235.778,181.913Z"/><path class="cls-5" d="M243.379,179.039v8.892h-1.355l-.109-.8a2.228,2.228,0,0,1-.761.72,2.084,2.084,0,0,1-1.05.264,2.043,2.043,0,0,1-1.788-.9,4.233,4.233,0,0,1-.624-2.448,4.543,4.543,0,0,1,.311-1.734,2.731,2.731,0,0,1,.9-1.194,2.255,2.255,0,0,1,2.945.252v-3.216Zm-2.124,7.71a2.041,2.041,0,0,0,.588-.618v-2.9a2.2,2.2,0,0,0-.558-.5,1.251,1.251,0,0,0-.654-.168,1.1,1.1,0,0,0-.966.546,3.075,3.075,0,0,0-.353,1.65,3.389,3.389,0,0,0,.311,1.686,1,1,0,0,0,.912.51A1.315,1.315,0,0,0,241.255,186.749Z"/><path class="cls-5" d="M246.685,178.637a.9.9,0,0,1,.27.666.885.885,0,0,1-.27.66.961.961,0,0,1-.7.264.944.944,0,0,1-.69-.264.885.885,0,0,1-.27-.66.9.9,0,0,1,.27-.666.933.933,0,0,1,.69-.27A.95.95,0,0,1,246.685,178.637Zm.078,2.946v6.348h-1.536v-6.348Z"/><path class="cls-5" d="M253.783,185.231H249.8a2.016,2.016,0,0,0,.48,1.32,1.483,1.483,0,0,0,1.08.4,2.259,2.259,0,0,0,.792-.138,3.72,3.72,0,0,0,.792-.426l.635.876a3.651,3.651,0,0,1-2.351.852,2.831,2.831,0,0,1-2.238-.888,3.528,3.528,0,0,1-.787-2.424,4.36,4.36,0,0,1,.336-1.746,2.773,2.773,0,0,1,.973-1.212,2.894,2.894,0,0,1,3.576.408,3.494,3.494,0,0,1,.732,2.358Q253.82,184.727,253.783,185.231Zm-1.487-1.068q0-1.668-1.236-1.668a1.05,1.05,0,0,0-.882.414,2.467,2.467,0,0,0-.378,1.326h2.5Z"/><path class="cls-5" d="M256.3,186.647a.8.8,0,0,1,.239.588,2.1,2.1,0,0,1-.216.852l-.8,1.836h-.792l.479-1.992a.864.864,0,0,1-.245-.3.874.874,0,0,1-.091-.4.82.82,0,0,1,.828-.828A.815.815,0,0,1,256.3,186.647Z"/><path class="cls-5" d="M264.337,180.071a2.1,2.1,0,0,1,1.147,1.908,3.16,3.16,0,0,1-.33,1.4,6.894,6.894,0,0,1-1.015,1.452q-.684.78-2.076,2.172h3.612l-.132.924H260.8v-.876q1.608-1.668,2.28-2.442a6.855,6.855,0,0,0,.96-1.35,2.713,2.713,0,0,0,.288-1.236,1.232,1.232,0,0,0-1.32-1.332,1.768,1.768,0,0,0-.864.2,3.159,3.159,0,0,0-.792.672l-.72-.576a3.312,3.312,0,0,1,1.092-.912,2.965,2.965,0,0,1,1.345-.3A2.673,2.673,0,0,1,264.337,180.071Z"/><path class="cls-5" d="M271.123,179.9v.828l-3,7.32-1.008-.336,2.892-6.912h-3.552v-.9Z"/><path class="cls-5" d="M283.4,181.985a2.038,2.038,0,0,1,.467,1.41v4.536h-1.1v-4.38q0-1.224-.888-1.224a1.2,1.2,0,0,0-.792.27,3.777,3.777,0,0,0-.7.846v4.488h-1.1v-4.38q0-1.224-.887-1.224a1.2,1.2,0,0,0-.805.276,3.81,3.81,0,0,0-.684.84v4.488h-1.1v-6.324h.948l.1.924a2.119,2.119,0,0,1,1.824-1.068,1.659,1.659,0,0,1,1,.3,1.64,1.64,0,0,1,.594.84,2.972,2.972,0,0,1,.822-.846,1.9,1.9,0,0,1,1.063-.294A1.6,1.6,0,0,1,283.4,181.985Z"/><path class="cls-5" d="M287.191,178.787a.736.736,0,0,1,.215.54.716.716,0,0,1-.215.534.777.777,0,0,1-.565.21.762.762,0,0,1-.552-.21.716.716,0,0,1-.215-.534.736.736,0,0,1,.215-.54.751.751,0,0,1,.552-.216A.765.765,0,0,1,287.191,178.787Zm0,2.82v6.324h-1.1v-6.324Z"/><path class="cls-5" d="M289.764,187.709a1.419,1.419,0,0,1-.354-1.026v-7.62l1.1-.132v7.728a.639.639,0,0,0,.091.384.355.355,0,0,0,.305.12,1.1,1.1,0,0,0,.409-.072l.288.768a1.8,1.8,0,0,1-.876.216A1.284,1.284,0,0,1,289.764,187.709Z"/><path class="cls-5" d="M293.923,186.647a.8.8,0,0,1,.239.588.823.823,0,0,1-.239.594.8.8,0,0,1-.6.246.79.79,0,0,1-.588-.246.817.817,0,0,1-.241-.594.821.821,0,0,1,.829-.828A.814.814,0,0,1,293.923,186.647Z"/><path class="cls-6" d="M233.635,213.923a3.081,3.081,0,0,1-.354,1.5,2.487,2.487,0,0,1-1.055,1.025,3.561,3.561,0,0,1-1.687.373,3.1,3.1,0,0,1-2.28-.787,2.838,2.838,0,0,1-.792-2.106v-5.58h1.584v5.5a1.991,1.991,0,0,0,.366,1.309,1.392,1.392,0,0,0,1.122.431,1.407,1.407,0,0,0,1.134-.431,1.991,1.991,0,0,0,.366-1.309v-5.5h1.6Z"/><path class="cls-6" d="M239.3,208.415a3.88,3.88,0,0,1,1.212.768l-.779.9a3.079,3.079,0,0,0-.9-.54,2.717,2.717,0,0,0-.966-.168,1.546,1.546,0,0,0-.929.257.845.845,0,0,0-.355.726.907.907,0,0,0,.138.517,1.3,1.3,0,0,0,.5.383,7.329,7.329,0,0,0,1.068.4,4.867,4.867,0,0,1,1.842.954,2.152,2.152,0,0,1,.618,1.663,2.348,2.348,0,0,1-.378,1.319,2.506,2.506,0,0,1-1.086.9,4.007,4.007,0,0,1-1.679.325,4.463,4.463,0,0,1-1.7-.307,3.974,3.974,0,0,1-1.29-.834l.816-.912a3.689,3.689,0,0,0,1,.618,2.987,2.987,0,0,0,1.141.21,1.755,1.755,0,0,0,1.1-.324,1.083,1.083,0,0,0,.42-.911,1.12,1.12,0,0,0-.144-.595,1.242,1.242,0,0,0-.492-.42,5.994,5.994,0,0,0-1.008-.39,4.738,4.738,0,0,1-1.908-.984,2.211,2.211,0,0,1-.227-2.712,2.367,2.367,0,0,1,1-.8,3.52,3.52,0,0,1,1.458-.288A4.19,4.19,0,0,1,239.3,208.415Z"/><path class="cls-6" d="M246.44,216.635l-.517-1.92h-2.748l-.516,1.92h-1.643l2.579-8.292h1.956l2.568,8.292Zm-2.952-3.12H245.6l-1.057-3.96Z"/><path class="cls-6" d="M250.1,215.351a.8.8,0,0,1,.239.589,2.1,2.1,0,0,1-.216.851l-.8,1.837h-.792l.479-1.993a.868.868,0,0,1-.336-.695.82.82,0,0,1,.828-.829A.819.819,0,0,1,250.1,215.351Z"/><path class="cls-6" d="M258.007,208.608v8.027h-1.1v-6.852l-1.873,1.14-.48-.78,2.484-1.535Z"/><path class="cls-6" d="M264.3,208.608v.827l-3,7.32-1.008-.335,2.892-6.913h-3.552v-.9Z"/><path class="cls-6" d="M276.572,210.69a2.034,2.034,0,0,1,.467,1.409v4.536h-1.1v-4.38q0-1.222-.888-1.224a1.2,1.2,0,0,0-.792.27,3.787,3.787,0,0,0-.7.847v4.487h-1.1v-4.38q0-1.222-.887-1.224a1.2,1.2,0,0,0-.805.276,3.819,3.819,0,0,0-.684.841v4.487h-1.1v-6.324h.948l.1.924a2.119,2.119,0,0,1,1.824-1.067,1.666,1.666,0,0,1,1,.3,1.644,1.644,0,0,1,.594.84,2.967,2.967,0,0,1,.822-.845,1.89,1.89,0,0,1,1.062-.294A1.594,1.594,0,0,1,276.572,210.69Z"/><path class="cls-6" d="M280.364,207.491a.737.737,0,0,1,.215.54.72.72,0,0,1-.215.535.782.782,0,0,1-.565.209.764.764,0,0,1-.552-.209.72.72,0,0,1-.216-.535.738.738,0,0,1,.216-.54.749.749,0,0,1,.552-.216A.767.767,0,0,1,280.364,207.491Zm0,2.82v6.324h-1.1v-6.324Z"/><path class="cls-6" d="M282.937,216.413a1.413,1.413,0,0,1-.354-1.026v-7.62l1.1-.132v7.728a.634.634,0,0,0,.091.384.355.355,0,0,0,.305.12,1.112,1.112,0,0,0,.408-.071l.289.768a1.815,1.815,0,0,1-.876.215A1.282,1.282,0,0,1,282.937,216.413Z"/><path class="cls-6" d="M287.1,215.351a.8.8,0,0,1,.239.589.822.822,0,0,1-.239.593.8.8,0,0,1-.6.246.793.793,0,0,1-.588-.246.819.819,0,0,1-.24-.593.82.82,0,0,1,.828-.829A.819.819,0,0,1,287.1,215.351Z"/><line class="cls-7" x1="233.427" y1="389.92" x2="221.889" y2="389.92"/><polygon class="cls-2" points="223.546 387.875 223.887 388.241 222.081 389.92 223.887 391.598 223.546 391.964 221.347 389.92 223.546 387.875"/><polygon class="cls-8" points="216.638 294.249 216.638 448.763 33.505 448.763 33.505 294.249 216.638 294.249 216.638 294.249"/><polygon class="cls-9" points="216.638 78.491 216.638 168.869 33.505 168.869 33.505 78.491 216.638 78.491 216.638 78.491"/><polygon class="cls-10" points="216.638 168.869 216.638 208.913 33.505 208.913 33.505 168.869 216.638 168.869 216.638 168.869"/><polygon class="cls-11" points="216.638 208.913 216.638 233.708 33.505 233.708 33.505 208.913 216.638 208.913 216.638 208.913"/><polygon class="cls-12" points="216.638 233.939 216.638 247.163 33.505 247.163 33.505 233.939 216.638 233.939 216.638 233.939"/><polygon class="cls-13" points="216.638 246.932 216.638 258.09 33.505 258.09 33.505 246.932 216.638 246.932 216.638 246.932"/><polygon class="cls-14" points="216.638 258.09 216.638 268.049 33.505 268.049 33.505 258.09 216.638 258.09 216.638 258.09"/><polygon class="cls-15" points="216.638 268.049 216.638 277.595 33.505 277.595 33.505 268.049 216.638 268.049 216.638 268.049"/><polygon class="cls-16" points="216.638 277.595 216.638 286.356 33.505 286.356 33.505 277.595 216.638 277.595 216.638 277.595"/><polygon class="cls-17" points="216.638 286.356 216.638 294.249 33.505 294.249 33.505 286.356 216.638 286.356 216.638 286.356"/><polygon class="cls-18" points="216 389.506 216 389.919 34.165 389.919 34.165 389.506 216 389.506 216 389.506"/><path class="cls-19" d="M228.958,224.964v7.6h-1.452v-7.6Z"/><path class="cls-19" d="M235.014,227.048a1.842,1.842,0,0,1,.434,1.3v4.213h-1.407v-3.993a1.118,1.118,0,0,0-.181-.726.671.671,0,0,0-.535-.209,1.044,1.044,0,0,0-.654.225,2.587,2.587,0,0,0-.566.655v4.048H230.7v-5.819h1.221l.11.759a2.162,2.162,0,0,1,1.771-.924A1.577,1.577,0,0,1,235.014,227.048Z"/><path class="cls-19" d="M241.983,224.414v8.151H240.74l-.1-.737a2.041,2.041,0,0,1-.7.66,1.909,1.909,0,0,1-.962.242,1.876,1.876,0,0,1-1.64-.825,3.883,3.883,0,0,1-.571-2.244,4.162,4.162,0,0,1,.286-1.59,2.5,2.5,0,0,1,.819-1.094,2.067,2.067,0,0,1,2.7.231V224.26Zm-1.948,7.068a1.869,1.869,0,0,0,.539-.567v-2.662a2.007,2.007,0,0,0-.511-.462,1.155,1.155,0,0,0-.6-.154,1,1,0,0,0-.885.5,2.823,2.823,0,0,0-.325,1.513,3.107,3.107,0,0,0,.286,1.545.922.922,0,0,0,.836.468A1.2,1.2,0,0,0,240.035,231.482Z"/><path class="cls-19" d="M248.06,227.4a3.294,3.294,0,0,1,.721,2.25,3.727,3.727,0,0,1-.331,1.611,2.5,2.5,0,0,1-.946,1.084,2.7,2.7,0,0,1-1.463.385,2.547,2.547,0,0,1-2.012-.819,3.288,3.288,0,0,1-.727-2.261,3.7,3.7,0,0,1,.33-1.606,2.5,2.5,0,0,1,.952-1.078,2.737,2.737,0,0,1,1.468-.385A2.536,2.536,0,0,1,248.06,227.4Zm-3.273,2.25a2.888,2.888,0,0,0,.314,1.523,1.144,1.144,0,0,0,1.881,0,3.825,3.825,0,0,0,0-3.031,1.033,1.033,0,0,0-.93-.489Q244.788,227.648,244.787,229.65Z"/><path class="cls-19" d="M254.417,227.048a1.843,1.843,0,0,1,.435,1.3v4.213h-1.407v-3.993a1.118,1.118,0,0,0-.182-.726.67.67,0,0,0-.534-.209,1.049,1.049,0,0,0-.655.225,2.607,2.607,0,0,0-.566.655v4.048H250.1v-5.819h1.222l.109.759a2.162,2.162,0,0,1,1.771-.924A1.577,1.577,0,0,1,254.417,227.048Z"/><path class="cls-19" d="M261.232,230.09h-3.653a1.854,1.854,0,0,0,.441,1.21,1.36,1.36,0,0,0,.99.363,2.079,2.079,0,0,0,.726-.126,3.438,3.438,0,0,0,.726-.391l.583.8a3.347,3.347,0,0,1-2.156.781,2.6,2.6,0,0,1-2.052-.814,3.234,3.234,0,0,1-.721-2.222,3.976,3.976,0,0,1,.309-1.6,2.534,2.534,0,0,1,.891-1.11,2.651,2.651,0,0,1,3.278.374,3.2,3.2,0,0,1,.671,2.161Q261.265,229.628,261.232,230.09Zm-1.661-6.545.572,1.1-2.487.99-.395-.715Zm.3,5.566q0-1.528-1.132-1.529a.963.963,0,0,0-.809.38,2.263,2.263,0,0,0-.347,1.215h2.288Z"/><path class="cls-19" d="M266.435,227.274l-.55.825a2.736,2.736,0,0,0-1.463-.473,1.126,1.126,0,0,0-.649.16.488.488,0,0,0-.231.423.528.528,0,0,0,.1.33.9.9,0,0,0,.357.248,6.064,6.064,0,0,0,.765.258,3.361,3.361,0,0,1,1.4.671,1.5,1.5,0,0,1,.457,1.166,1.562,1.562,0,0,1-.7,1.358,2.988,2.988,0,0,1-1.749.49,3.694,3.694,0,0,1-1.3-.22,3.165,3.165,0,0,1-1.017-.6l.7-.792a2.6,2.6,0,0,0,1.584.572,1.337,1.337,0,0,0,.753-.187.589.589,0,0,0,.281-.517.689.689,0,0,0-.1-.4.873.873,0,0,0-.374-.264,7.672,7.672,0,0,0-.842-.281,2.8,2.8,0,0,1-1.309-.677,1.5,1.5,0,0,1-.418-1.083,1.433,1.433,0,0,1,.281-.869,1.863,1.863,0,0,1,.792-.605,2.928,2.928,0,0,1,1.17-.22A3.273,3.273,0,0,1,266.435,227.274Z"/><path class="cls-19" d="M269.1,224.046a.828.828,0,0,1,.247.61.81.81,0,0,1-.247.6.884.884,0,0,1-.644.242.869.869,0,0,1-.633-.242.81.81,0,0,1-.247-.6.828.828,0,0,1,.247-.61.854.854,0,0,1,.633-.248A.868.868,0,0,1,269.1,224.046Zm.071,2.7v5.819h-1.408v-5.819Z"/><path class="cls-19" d="M275.609,230.09h-3.653a1.854,1.854,0,0,0,.441,1.21,1.36,1.36,0,0,0,.99.363,2.079,2.079,0,0,0,.726-.126,3.438,3.438,0,0,0,.726-.391l.583.8a3.347,3.347,0,0,1-2.156.781,2.6,2.6,0,0,1-2.052-.814,3.234,3.234,0,0,1-.721-2.222,3.976,3.976,0,0,1,.309-1.6,2.534,2.534,0,0,1,.891-1.11,2.651,2.651,0,0,1,3.278.374,3.2,3.2,0,0,1,.671,2.161Q275.642,229.628,275.609,230.09Zm-1.365-.979q0-1.528-1.132-1.529a.963.963,0,0,0-.809.38,2.263,2.263,0,0,0-.347,1.215h2.288Z"/><path class="cls-20" d="M234.711,276.639h-1.419l-.2-3.179q-.1-1.7-.1-2.706v-.4l-1.385,5.456h-1.375l-1.475-5.467q.023.726.022,1.1,0,1-.066,2.057l-.186,3.135h-1.409l.606-7.6h1.87l1.352,5.324,1.277-5.324h1.891Z"/><path class="cls-20" d="M240.805,274.164h-3.652a1.854,1.854,0,0,0,.44,1.21,1.36,1.36,0,0,0,.99.363,2.079,2.079,0,0,0,.726-.126,3.414,3.414,0,0,0,.726-.391l.583.8a3.347,3.347,0,0,1-2.156.781,2.6,2.6,0,0,1-2.052-.814,3.233,3.233,0,0,1-.72-2.222,3.967,3.967,0,0,1,.308-1.6,2.531,2.531,0,0,1,.891-1.111,2.651,2.651,0,0,1,3.278.374,3.193,3.193,0,0,1,.671,2.161C240.838,273.666,240.827,273.856,240.805,274.164Zm-1.364-.979q0-1.529-1.133-1.529a.964.964,0,0,0-.809.38,2.267,2.267,0,0,0-.346,1.215h2.288Z"/><path class="cls-20" d="M244.722,273.526l1.947,3.113h-1.628l-1.2-2.31-1.188,2.31H241.1l1.936-3.069-1.738-2.75h1.606l.99,1.98.979-1.98h1.529Z"/><path class="cls-20" d="M248.82,268.12a.828.828,0,0,1,.247.61.81.81,0,0,1-.247.6.88.88,0,0,1-.644.242.865.865,0,0,1-.633-.242.81.81,0,0,1-.247-.6.828.828,0,0,1,.247-.61.858.858,0,0,1,.633-.248A.872.872,0,0,1,248.82,268.12Zm.071,2.7v5.819h-1.408V270.82Z"/><path class="cls-20" d="M251.992,268.334v8.305h-1.408v-8.151Zm3.488,2.486-1.937,2.563,2.123,3.256h-1.617l-2-3.179,1.947-2.64Z"/><path class="cls-20" d="M260.721,271.475a3.29,3.29,0,0,1,.721,2.249,3.749,3.749,0,0,1-.33,1.612,2.5,2.5,0,0,1-.947,1.083,2.7,2.7,0,0,1-1.463.385,2.547,2.547,0,0,1-2.012-.819,3.286,3.286,0,0,1-.727-2.261,3.7,3.7,0,0,1,.33-1.606,2.5,2.5,0,0,1,.952-1.078,2.737,2.737,0,0,1,1.468-.385A2.532,2.532,0,0,1,260.721,271.475Zm-3.273,2.249a2.892,2.892,0,0,0,.314,1.524,1.145,1.145,0,0,0,1.881-.006,2.9,2.9,0,0,0,.313-1.518,2.861,2.861,0,0,0-.313-1.512,1.032,1.032,0,0,0-.93-.49Q257.448,271.722,257.448,273.724Z"/><path class="cls-21" d="M232.022,299.026a2.121,2.121,0,0,1,.808,1.815,2.253,2.253,0,0,1-.813,1.9,3.438,3.438,0,0,1-2.167.633h-.892v2.651h-1.452v-7.6h2.244A3.73,3.73,0,0,1,232.022,299.026Zm-1.106,2.932a1.37,1.37,0,0,0,.4-1.117q0-1.353-1.573-1.353h-.782v2.794h.782A1.822,1.822,0,0,0,230.916,301.958Z"/><path class="cls-21" d="M237.786,304.983a.672.672,0,0,0,.335.247l-.3.935a1.793,1.793,0,0,1-.808-.242,1.245,1.245,0,0,1-.479-.605,1.867,1.867,0,0,1-.742.655,2.28,2.28,0,0,1-1,.214,1.883,1.883,0,0,1-1.375-.5,1.736,1.736,0,0,1-.506-1.3,1.681,1.681,0,0,1,.688-1.447,3.3,3.3,0,0,1,1.964-.5h.725v-.33a1,1,0,0,0-.258-.786,1.245,1.245,0,0,0-.831-.226,4.924,4.924,0,0,0-1.54.308l-.33-.957a5.879,5.879,0,0,1,2.112-.418q2.234,0,2.234,2v2.442A.931.931,0,0,0,237.786,304.983ZM236.3,297l.572,1.1-2.486.99-.4-.715Zm0,7.447v-1.177h-.583q-1.363,0-1.363,1.012a.929.929,0,0,0,.209.649.786.786,0,0,0,.615.231A1.244,1.244,0,0,0,236.3,304.449Z"/><path class="cls-21" d="M240.794,297.717v8.305h-1.408v-8.151Zm3.487,2.486-1.936,2.563,2.123,3.256h-1.617l-2-3.179,1.947-2.64Z"/><path class="cls-21" d="M246.6,297.5a.828.828,0,0,1,.247.61.81.81,0,0,1-.247.605.884.884,0,0,1-.644.242.868.868,0,0,1-.632-.242.811.811,0,0,1-.248-.605.829.829,0,0,1,.248-.61.853.853,0,0,1,.632-.248A.868.868,0,0,1,246.6,297.5Zm.071,2.7v5.819H245.26V300.2Z"/><path class="cls-21" d="M252.267,300.731l-.55.825a2.736,2.736,0,0,0-1.463-.473,1.126,1.126,0,0,0-.649.16.488.488,0,0,0-.231.423.528.528,0,0,0,.1.33.9.9,0,0,0,.357.248,6.064,6.064,0,0,0,.765.258,3.361,3.361,0,0,1,1.4.671,1.5,1.5,0,0,1,.457,1.166,1.562,1.562,0,0,1-.7,1.358,2.984,2.984,0,0,1-1.749.49,3.684,3.684,0,0,1-1.3-.22,3.159,3.159,0,0,1-1.018-.6l.7-.792a2.6,2.6,0,0,0,1.584.572,1.337,1.337,0,0,0,.753-.187.589.589,0,0,0,.281-.517.689.689,0,0,0-.1-.4.873.873,0,0,0-.374-.264,7.672,7.672,0,0,0-.842-.281,2.806,2.806,0,0,1-1.309-.676,1.5,1.5,0,0,1-.418-1.084,1.433,1.433,0,0,1,.281-.869,1.863,1.863,0,0,1,.792-.605,2.928,2.928,0,0,1,1.17-.22A3.273,3.273,0,0,1,252.267,300.731Z"/><path class="cls-21" d="M256.931,305.747a2.235,2.235,0,0,1-.688.33,2.775,2.775,0,0,1-.775.11,1.725,1.725,0,0,1-1.3-.49,2,2,0,0,1-.445-1.413v-3.069h-.913V300.2h.913v-1.287l1.408-.165V300.2h1.353l-.143,1.012h-1.21v3.036a1,1,0,0,0,.149.616.558.558,0,0,0,.467.187,1.438,1.438,0,0,0,.693-.209Z"/><path class="cls-21" d="M262.019,304.983a.663.663,0,0,0,.335.247l-.3.935a1.8,1.8,0,0,1-.809-.242,1.238,1.238,0,0,1-.478-.605,1.874,1.874,0,0,1-.742.655,2.281,2.281,0,0,1-1,.214,1.883,1.883,0,0,1-1.375-.5,1.739,1.739,0,0,1-.5-1.3,1.68,1.68,0,0,1,.687-1.447,3.3,3.3,0,0,1,1.964-.5h.726v-.33a1,1,0,0,0-.258-.786,1.247,1.247,0,0,0-.831-.226,4.919,4.919,0,0,0-1.54.308l-.33-.957a5.87,5.87,0,0,1,2.112-.418q2.232,0,2.233,2v2.442A.921.921,0,0,0,262.019,304.983ZM260.528,297l.572,1.1-2.486.99-.4-.715Zm0,7.447v-1.177h-.583q-1.365,0-1.364,1.012a.934.934,0,0,0,.209.649.787.787,0,0,0,.616.231A1.246,1.246,0,0,0,260.528,304.449Z"/><path class="cls-21" d="M267.936,300.505a1.842,1.842,0,0,1,.434,1.3v4.213h-1.407v-3.993a1.112,1.112,0,0,0-.182-.726.669.669,0,0,0-.534-.209,1.05,1.05,0,0,0-.654.225,2.587,2.587,0,0,0-.566.655v4.048h-1.409V300.2h1.222l.109.759a2.165,2.165,0,0,1,1.772-.924A1.578,1.578,0,0,1,267.936,300.505Z"/><path class="cls-22" d="M233.116,291.331h-1.88l-2.608-6.149q.1.813.149,1.474t.049,1.573v3.1h-1.32v-7.6h1.837l2.651,6.16c-.044-.294-.088-.68-.131-1.161s-.067-.958-.067-1.435V283.73h1.32Z"/><path class="cls-22" d="M236.191,282.811a.83.83,0,0,1,.247.61.809.809,0,0,1-.247.605.881.881,0,0,1-.644.243.866.866,0,0,1-.633-.243.809.809,0,0,1-.247-.605.83.83,0,0,1,.247-.61.857.857,0,0,1,.633-.247A.871.871,0,0,1,236.191,282.811Zm.071,2.7v5.819h-1.408v-5.819Z"/><path class="cls-22" d="M243.017,285.819a5.347,5.347,0,0,1-1.684.2,1.93,1.93,0,0,1,.8.6,1.5,1.5,0,0,1,.259.9,1.836,1.836,0,0,1-.281,1.011,1.9,1.9,0,0,1-.814.694,2.891,2.891,0,0,1-1.249.253,2.466,2.466,0,0,1-.692-.088.5.5,0,0,0-.242.429c0,.271.234.407.7.407h.89a2.776,2.776,0,0,1,1.117.209,1.712,1.712,0,0,1,.743.588,1.464,1.464,0,0,1,.263.853,1.547,1.547,0,0,1-.748,1.369,3.93,3.93,0,0,1-2.155.49,4.838,4.838,0,0,1-1.59-.209,1.519,1.519,0,0,1-.819-.6,1.923,1.923,0,0,1-.242-1.013h1.264a.87.87,0,0,0,.117.485.705.705,0,0,0,.417.263,3.3,3.3,0,0,0,.875.089,2.351,2.351,0,0,0,1.132-.2.628.628,0,0,0,.33-.572.593.593,0,0,0-.253-.512,1.254,1.254,0,0,0-.737-.182h-.88a2.023,2.023,0,0,1-1.242-.318.972.972,0,0,1-.419-.8,1.093,1.093,0,0,1,.182-.594,1.54,1.54,0,0,1,.5-.484,1.912,1.912,0,0,1-.776-.677,1.8,1.8,0,0,1-.248-.962,1.965,1.965,0,0,1,.309-1.1,2.028,2.028,0,0,1,.852-.732,2.883,2.883,0,0,1,1.249-.258,5.2,5.2,0,0,0,1.49-.138,6.207,6.207,0,0,0,1.226-.511Zm-3.79.787a1.17,1.17,0,0,0-.27.809,1.206,1.206,0,0,0,.276.836,1.109,1.109,0,0,0,1.529,0,1.252,1.252,0,0,0,.264-.852q0-1.1-1.056-1.1A.943.943,0,0,0,239.227,286.606Z"/><path class="cls-22" d="M248.4,288.856h-3.653a1.854,1.854,0,0,0,.441,1.21,1.36,1.36,0,0,0,.99.363,2.08,2.08,0,0,0,.726-.127,3.431,3.431,0,0,0,.726-.39l.583.8a3.348,3.348,0,0,1-2.156.782,2.6,2.6,0,0,1-2.052-.814,3.235,3.235,0,0,1-.72-2.222,3.972,3.972,0,0,1,.308-1.6,2.537,2.537,0,0,1,.891-1.111,2.655,2.655,0,0,1,3.278.374,3.2,3.2,0,0,1,.671,2.162C248.428,288.357,248.417,288.547,248.4,288.856Zm-1.661-6.545.572,1.1-2.486.989-.4-.714Zm.3,5.566q0-1.529-1.133-1.529a.962.962,0,0,0-.809.379,2.275,2.275,0,0,0-.347,1.215h2.289Z"/><path class="cls-22" d="M253.147,285.435l-.242,1.363a2.123,2.123,0,0,0-.517-.065.993.993,0,0,0-.815.368,2.848,2.848,0,0,0-.472,1.128v3.1h-1.408v-5.819h1.221l.132,1.144a2.093,2.093,0,0,1,.605-.963,1.368,1.368,0,0,1,.913-.335A2.052,2.052,0,0,1,253.147,285.435Z"/><path class="cls-22" d="M255.364,282.811a.83.83,0,0,1,.247.61.809.809,0,0,1-.247.605.882.882,0,0,1-.644.243.866.866,0,0,1-.633-.243.809.809,0,0,1-.247-.605.83.83,0,0,1,.247-.61.857.857,0,0,1,.633-.247A.873.873,0,0,1,255.364,282.811Zm.071,2.7v5.819h-1.408v-5.819Z"/><path class="cls-22" d="M261.87,288.856h-3.652a1.854,1.854,0,0,0,.44,1.21,1.362,1.362,0,0,0,.991.363,2.07,2.07,0,0,0,.725-.127,3.412,3.412,0,0,0,.727-.39l.583.8a3.35,3.35,0,0,1-2.156.782,2.6,2.6,0,0,1-2.052-.814,3.231,3.231,0,0,1-.721-2.222,3.972,3.972,0,0,1,.309-1.6,2.542,2.542,0,0,1,.89-1.111,2.657,2.657,0,0,1,3.279.374,3.2,3.2,0,0,1,.671,2.162C261.9,288.357,261.893,288.547,261.87,288.856Zm-1.364-.979q0-1.529-1.133-1.529a.961.961,0,0,0-.808.379,2.258,2.258,0,0,0-.347,1.215h2.288Z"/><path class="cls-23" d="M232.5,243.792a1.6,1.6,0,0,1,.479,1.275,1.811,1.811,0,0,1-.836,1.689,4.581,4.581,0,0,1-2.344.5h-2.288v-7.6H229.5q3.147,0,3.147,1.936a1.515,1.515,0,0,1-.407,1.095,1.884,1.884,0,0,1-1,.545A2.573,2.573,0,0,1,232.5,243.792Zm-3.537-3.07v2.057h.892a1.537,1.537,0,0,0,.957-.269.943.943,0,0,0,.351-.8.824.824,0,0,0-.368-.77,2.323,2.323,0,0,0-1.149-.22Zm2.073,5.2a.957.957,0,0,0,.424-.913,1.068,1.068,0,0,0-.4-.935,1.862,1.862,0,0,0-1.095-.285h-1v2.376h.848A2.5,2.5,0,0,0,231.031,245.925Z"/><path class="cls-23" d="M237.659,241.36l-.242,1.364a2.117,2.117,0,0,0-.516-.066.99.99,0,0,0-.815.369,2.85,2.85,0,0,0-.472,1.127v3.1h-1.409v-5.818h1.222l.132,1.144a2.1,2.1,0,0,1,.6-.963,1.373,1.373,0,0,1,.913-.336A2.083,2.083,0,0,1,237.659,241.36Z"/><path class="cls-23" d="M242.561,246.217a.657.657,0,0,0,.335.247l-.3.936a1.8,1.8,0,0,1-.809-.243,1.233,1.233,0,0,1-.478-.605,1.867,1.867,0,0,1-.742.655,2.267,2.267,0,0,1-1,.214,1.883,1.883,0,0,1-1.375-.5,1.737,1.737,0,0,1-.5-1.3,1.68,1.68,0,0,1,.687-1.447,3.3,3.3,0,0,1,1.964-.5h.726v-.329a1,1,0,0,0-.258-.787,1.253,1.253,0,0,0-.831-.226,4.9,4.9,0,0,0-1.54.309l-.33-.957a5.87,5.87,0,0,1,2.112-.418q2.232,0,2.233,2v2.441A.921.921,0,0,0,242.561,246.217Zm-1.491-.534v-1.177h-.583q-1.365,0-1.364,1.013a.938.938,0,0,0,.209.649.791.791,0,0,0,.616.231A1.247,1.247,0,0,0,241.07,245.683Z"/><path class="cls-23" d="M247.945,241.438v1.011l-2.816,3.707H248l-.142,1.1h-4.345v-1.012l2.827-3.707h-2.585v-1.1Z"/><path class="cls-23" d="M250.639,238.236l.572,1.1-2.486.989-.4-.715Zm-.132,3.2v5.818H249.1v-5.818Z"/><path class="cls-23" d="M252.669,247.031a1.521,1.521,0,0,1-.38-1.106v-6.819l1.409-.155v6.93c0,.272.109.408.33.408a1.04,1.04,0,0,0,.33-.056l.3.99a2.243,2.243,0,0,1-.936.2A1.4,1.4,0,0,1,252.669,247.031Z"/><path class="cls-23" d="M256.926,238.737a.83.83,0,0,1,.247.61.81.81,0,0,1-.247.6.88.88,0,0,1-.644.242.864.864,0,0,1-.632-.242.81.81,0,0,1-.247-.6.83.83,0,0,1,.247-.61.857.857,0,0,1,.632-.248A.872.872,0,0,1,256.926,238.737Zm.071,2.7v5.818h-1.408v-5.818Z"/><path class="cls-23" d="M263.432,244.781H259.78a1.846,1.846,0,0,0,.44,1.21,1.361,1.361,0,0,0,.99.364,2.08,2.08,0,0,0,.726-.127,3.37,3.37,0,0,0,.726-.391l.583.8a3.347,3.347,0,0,1-2.156.781,2.6,2.6,0,0,1-2.052-.813,3.238,3.238,0,0,1-.72-2.223,3.971,3.971,0,0,1,.308-1.6,2.537,2.537,0,0,1,.891-1.111,2.655,2.655,0,0,1,3.278.374,3.2,3.2,0,0,1,.671,2.162Q263.465,244.319,263.432,244.781Zm-1.364-.979q0-1.529-1.133-1.528a.963.963,0,0,0-.809.379,2.267,2.267,0,0,0-.346,1.215h2.288Z"/><path class="cls-24" d="M231.917,254.347l-.153,1.078h-2.806v2.123H231.4v1.078h-2.443v2.233h3v1.089h-4.455v-7.6Z"/><path class="cls-24" d="M238.133,256.437a5.378,5.378,0,0,1-1.684.2,1.93,1.93,0,0,1,.8.6,1.5,1.5,0,0,1,.259.9,1.842,1.842,0,0,1-.281,1.012,1.9,1.9,0,0,1-.814.693,2.891,2.891,0,0,1-1.249.253,2.434,2.434,0,0,1-.692-.088.5.5,0,0,0-.242.429c0,.271.234.407.7.407h.891a2.783,2.783,0,0,1,1.117.209,1.714,1.714,0,0,1,.742.588,1.458,1.458,0,0,1,.264.853,1.55,1.55,0,0,1-.748,1.37,3.946,3.946,0,0,1-2.156.489,4.838,4.838,0,0,1-1.59-.209,1.518,1.518,0,0,1-.819-.605,1.919,1.919,0,0,1-.242-1.012h1.265a.877.877,0,0,0,.116.484.714.714,0,0,0,.418.264,3.336,3.336,0,0,0,.874.088,2.346,2.346,0,0,0,1.133-.2.63.63,0,0,0,.33-.572.593.593,0,0,0-.253-.512,1.258,1.258,0,0,0-.738-.181h-.88a2.027,2.027,0,0,1-1.242-.319.972.972,0,0,1-.419-.8,1.1,1.1,0,0,1,.182-.594,1.54,1.54,0,0,1,.5-.484,1.909,1.909,0,0,1-.775-.677,1.8,1.8,0,0,1-.248-.962,1.964,1.964,0,0,1,.308-1.1,2.032,2.032,0,0,1,.853-.732,2.876,2.876,0,0,1,1.248-.258,5.161,5.161,0,0,0,1.49-.138,6.238,6.238,0,0,0,1.227-.511Zm-3.79.786a1.17,1.17,0,0,0-.27.809,1.206,1.206,0,0,0,.276.836,1.109,1.109,0,0,0,1.529,0,1.252,1.252,0,0,0,.264-.852q0-1.1-1.056-1.1A.947.947,0,0,0,234.343,257.223Z"/><path class="cls-24" d="M241.8,261.97a3.58,3.58,0,0,1-1.067,1.678,3.4,3.4,0,0,1-1.958.7l-.143-1.023a3.494,3.494,0,0,0,.918-.248,1.472,1.472,0,0,0,.556-.423,2.871,2.871,0,0,0,.385-.7H240l-1.847-5.819h1.5l1.265,4.884,1.32-4.884h1.452Z"/><path class="cls-24" d="M249.188,256.767a4.094,4.094,0,0,1,.527,2.255,4.435,4.435,0,0,1-.269,1.6,2.437,2.437,0,0,1-.792,1.095,1.99,1.99,0,0,1-1.238.4,1.817,1.817,0,0,1-1.463-.638v2.717l-1.408.154v-8.217h1.233l.077.715a2.265,2.265,0,0,1,.78-.66,2.041,2.041,0,0,1,.925-.22A1.815,1.815,0,0,1,249.188,256.767Zm-.947,2.266a3.207,3.207,0,0,0-.275-1.54.894.894,0,0,0-.824-.473,1.129,1.129,0,0,0-.66.214,1.884,1.884,0,0,0-.529.578v2.618a1.238,1.238,0,0,0,1.068.605Q248.241,261.035,248.241,259.033Z"/><path class="cls-24" d="M254.434,261.673a2.258,2.258,0,0,1-.688.33,2.775,2.775,0,0,1-.775.11,1.729,1.729,0,0,1-1.3-.49,2,2,0,0,1-.445-1.413v-3.069h-.913v-1.012h.913v-1.287l1.408-.165v1.452h1.353l-.143,1.012h-1.21v3.036a1,1,0,0,0,.149.616.557.557,0,0,0,.467.187,1.438,1.438,0,0,0,.693-.209Z"/><path class="cls-25" d="M243.763,386.694a2.194,2.194,0,0,1,.786,1.854,2.267,2.267,0,0,1-.822,1.938,3.666,3.666,0,0,1-2.25.618H240.3v3.2h-.72v-8.221h1.932A3.618,3.618,0,0,1,243.763,386.694Zm-.569,3.378a1.762,1.762,0,0,0,.6-1.512,1.694,1.694,0,0,0-.582-1.446,2.816,2.816,0,0,0-1.71-.438h-1.2v3.84h1.176A2.853,2.853,0,0,0,243.194,390.072Z"/><path class="cls-25" d="M250.111,388.758a4.422,4.422,0,0,1-.012,4.8,2.61,2.61,0,0,1-3.9.012,3.716,3.716,0,0,1-.7-2.394,4.329,4.329,0,0,1,.325-1.74,2.416,2.416,0,0,1,2.339-1.536A2.383,2.383,0,0,1,250.111,388.758Zm-3.367.413a4.233,4.233,0,0,0,0,4,1.64,1.64,0,0,0,1.41.684,1.673,1.673,0,0,0,1.422-.684,4.228,4.228,0,0,0,.011-4,1.82,1.82,0,0,0-2.838,0Z"/><path class="cls-25" d="M257.329,385.476v8.832h-.6l-.084-.96a2.07,2.07,0,0,1-1.885,1.092,2.013,2.013,0,0,1-1.722-.87,3.967,3.967,0,0,1-.63-2.37,4.655,4.655,0,0,1,.294-1.717,2.63,2.63,0,0,1,.852-1.163,2.124,2.124,0,0,1,1.314-.42,2.181,2.181,0,0,1,1.764.852v-3.36Zm-1.446,8.1a2.631,2.631,0,0,0,.75-.876v-3.276a1.97,1.97,0,0,0-1.643-.948,1.567,1.567,0,0,0-1.351.708,3.386,3.386,0,0,0-.485,2,3.594,3.594,0,0,0,.456,1.986,1.43,1.43,0,0,0,1.259.69A1.73,1.73,0,0,0,255.883,393.576Z"/><path class="cls-25" d="M260.107,394.14a1.215,1.215,0,0,1-.294-.888v-7.776l.7-.084v7.836q0,.612.5.612a1.018,1.018,0,0,0,.432-.084l.192.516a1.591,1.591,0,0,1-.72.168A1.086,1.086,0,0,1,260.107,394.14Z"/><path class="cls-25" d="M267.65,391.44h-4.189a2.928,2.928,0,0,0,.582,1.818,1.742,1.742,0,0,0,1.374.594,2.346,2.346,0,0,0,.87-.15,3.82,3.82,0,0,0,.823-.474l.324.443a3.568,3.568,0,0,1-.96.577,2.986,2.986,0,0,1-1.093.192,2.4,2.4,0,0,1-1.956-.853,3.588,3.588,0,0,1-.708-2.363,4.6,4.6,0,0,1,.307-1.746,2.618,2.618,0,0,1,.876-1.164,2.2,2.2,0,0,1,1.326-.414,2.16,2.16,0,0,1,1.823.81,3.565,3.565,0,0,1,.624,2.226C267.673,391.112,267.665,391.28,267.65,391.44Zm-.66-.72a2.732,2.732,0,0,0-.439-1.65,1.514,1.514,0,0,0-1.3-.594,1.535,1.535,0,0,0-1.259.6,3.083,3.083,0,0,0-.529,1.824h3.529Z"/><path class="cls-25" d="M277.3,388.746a4.262,4.262,0,0,1,.569,2.394,4.172,4.172,0,0,1-.617,2.406,2.022,2.022,0,0,1-1.77.894,2.2,2.2,0,0,1-1.02-.234,2.3,2.3,0,0,1-.768-.63v3.095l-.7.1v-8.736h.6l.059.912a2.548,2.548,0,0,1,.847-.768,2.2,2.2,0,0,1,1.086-.276A1.924,1.924,0,0,1,277.3,388.746Zm-.63,4.422a3.677,3.677,0,0,0,.456-2.028q0-2.664-1.668-2.664a1.667,1.667,0,0,0-.978.288,3.414,3.414,0,0,0-.786.792v3.336a1.9,1.9,0,0,0,1.656.96A1.49,1.49,0,0,0,276.673,393.168Z"/><path class="cls-25" d="M283.032,387.972l-.131.66a2.094,2.094,0,0,0-.552-.072,1.274,1.274,0,0,0-1.026.462,3.791,3.791,0,0,0-.655,1.446v3.84h-.695v-6.276h.6l.059,1.4a2.511,2.511,0,0,1,.691-1.158,1.6,1.6,0,0,1,1.085-.378A2.3,2.3,0,0,1,283.032,387.972Z"/><path class="cls-25" d="M288.517,391.44h-4.189a2.928,2.928,0,0,0,.582,1.818,1.742,1.742,0,0,0,1.374.594,2.348,2.348,0,0,0,.871-.15,3.839,3.839,0,0,0,.822-.474l.324.443a3.553,3.553,0,0,1-.96.577,2.982,2.982,0,0,1-1.093.192,2.4,2.4,0,0,1-1.956-.853,3.594,3.594,0,0,1-.708-2.363,4.6,4.6,0,0,1,.307-1.746,2.618,2.618,0,0,1,.876-1.164,2.2,2.2,0,0,1,1.326-.414,2.16,2.16,0,0,1,1.823.81,3.565,3.565,0,0,1,.624,2.226C288.54,391.112,288.532,391.28,288.517,391.44Zm-.66-.72a2.732,2.732,0,0,0-.439-1.65,1.513,1.513,0,0,0-1.3-.594,1.535,1.535,0,0,0-1.259.6,3.09,3.09,0,0,0-.529,1.824h3.529Z"/><path class="cls-25" d="M295,385.476v8.832h-.6l-.084-.96a2.07,2.07,0,0,1-1.885,1.092,2.013,2.013,0,0,1-1.722-.87,3.967,3.967,0,0,1-.63-2.37,4.655,4.655,0,0,1,.294-1.717,2.63,2.63,0,0,1,.852-1.163,2.124,2.124,0,0,1,1.314-.42,2.181,2.181,0,0,1,1.764.852v-3.36Zm-1.446,8.1a2.631,2.631,0,0,0,.75-.876v-3.276a1.971,1.971,0,0,0-1.644-.948,1.567,1.567,0,0,0-1.35.708,3.386,3.386,0,0,0-.485,2,3.594,3.594,0,0,0,.456,1.986,1.43,1.43,0,0,0,1.259.69A1.73,1.73,0,0,0,293.55,393.576Z"/><path class="cls-25" d="M298.261,385.416a.522.522,0,0,1,0,.72.521.521,0,0,1-.384.144.5.5,0,0,1-.372-.144.522.522,0,0,1,0-.72.5.5,0,0,1,.372-.144A.521.521,0,0,1,298.261,385.416Zm-.024,2.616v6.276h-.7v-6.276Z"/><path class="cls-25" d="M301.476,385.392v8.916h-.695v-8.832Zm3.516,2.64-2.64,2.808,2.916,3.468h-.84l-2.88-3.432,2.64-2.844Z"/><path class="cls-25" d="M309.66,388.05a2.643,2.643,0,0,1,.817.486l-.349.456a2.255,2.255,0,0,0-.641-.372,2.186,2.186,0,0,0-.75-.12,1.691,1.691,0,0,0-1.416.69,3.257,3.257,0,0,0-.529,2.01,3.125,3.125,0,0,0,.523,1.968,1.7,1.7,0,0,0,1.41.66,2.109,2.109,0,0,0,.762-.132,2.865,2.865,0,0,0,.69-.4l.336.468a2.708,2.708,0,0,1-1.8.672,2.542,2.542,0,0,1-1.4-.384,2.511,2.511,0,0,1-.931-1.11,4.165,4.165,0,0,1-.33-1.734,4.3,4.3,0,0,1,.33-1.746,2.649,2.649,0,0,1,.931-1.158,2.41,2.41,0,0,1,1.391-.408A2.841,2.841,0,0,1,309.66,388.05Z"/><path class="cls-25" d="M316.4,391.44h-4.189a2.922,2.922,0,0,0,.582,1.818,1.742,1.742,0,0,0,1.374.594,2.346,2.346,0,0,0,.87-.15,3.82,3.82,0,0,0,.823-.474l.324.443a3.568,3.568,0,0,1-.96.577,2.986,2.986,0,0,1-1.093.192,2.4,2.4,0,0,1-1.956-.853,3.588,3.588,0,0,1-.708-2.363,4.579,4.579,0,0,1,.307-1.746,2.618,2.618,0,0,1,.876-1.164,2.195,2.195,0,0,1,1.326-.414,2.16,2.16,0,0,1,1.823.81,3.565,3.565,0,0,1,.624,2.226C316.428,391.112,316.42,391.28,316.4,391.44Zm-.661-.72a2.732,2.732,0,0,0-.438-1.65,1.514,1.514,0,0,0-1.3-.594,1.538,1.538,0,0,0-1.26.6,3.091,3.091,0,0,0-.528,1.824h3.528Z"/><path class="cls-25" d="M326.029,388.74a5.018,5.018,0,0,1-.031,4.812,2.034,2.034,0,0,1-1.758.888,2.106,2.106,0,0,1-1.025-.252,2.351,2.351,0,0,1-.774-.672l-.073.792h-.611v-8.832l.695-.084v3.516a2.255,2.255,0,0,1,1.884-1.008A1.96,1.96,0,0,1,326.029,388.74Zm-.606,4.434a3.67,3.67,0,0,0,.462-2.034q0-2.664-1.692-2.664a1.665,1.665,0,0,0-.972.282,3.131,3.131,0,0,0-.769.8v3.3a2.411,2.411,0,0,0,.721.738,1.692,1.692,0,0,0,.936.27A1.489,1.489,0,0,0,325.423,393.174Z"/><path class="cls-25" d="M333.132,394.308h-.6l-.036-1.116a2.288,2.288,0,0,1-2.051,1.248,1.7,1.7,0,0,1-1.315-.5,2.019,2.019,0,0,1-.462-1.422v-4.488h.7v4.416a1.58,1.58,0,0,0,.305,1.074,1.185,1.185,0,0,0,.93.342,2.147,2.147,0,0,0,1.837-1.284v-4.548h.695Z"/><path class="cls-25" d="M340.153,385.476v8.832h-.6l-.084-.96a2.07,2.07,0,0,1-1.885,1.092,2.011,2.011,0,0,1-1.721-.87,3.967,3.967,0,0,1-.63-2.37,4.635,4.635,0,0,1,.294-1.717,2.621,2.621,0,0,1,.851-1.163,2.126,2.126,0,0,1,1.315-.42,2.18,2.18,0,0,1,1.763.852v-3.36Zm-1.447,8.1a2.608,2.608,0,0,0,.75-.876v-3.276a1.97,1.97,0,0,0-1.643-.948,1.567,1.567,0,0,0-1.351.708,3.386,3.386,0,0,0-.485,2,3.594,3.594,0,0,0,.456,1.986,1.431,1.431,0,0,0,1.26.69A1.729,1.729,0,0,0,338.706,393.576Z"/><path class="cls-25" d="M347.124,391.44h-4.188a2.922,2.922,0,0,0,.582,1.818,1.739,1.739,0,0,0,1.374.594,2.346,2.346,0,0,0,.87-.15,3.816,3.816,0,0,0,.822-.474l.324.443a3.538,3.538,0,0,1-.96.577,2.981,2.981,0,0,1-1.092.192,2.4,2.4,0,0,1-1.956-.853,3.588,3.588,0,0,1-.708-2.363,4.6,4.6,0,0,1,.306-1.746,2.618,2.618,0,0,1,.876-1.164,2.2,2.2,0,0,1,1.326-.414,2.162,2.162,0,0,1,1.824.81,3.565,3.565,0,0,1,.624,2.226Q347.148,391.2,347.124,391.44Zm-.66-.72a2.732,2.732,0,0,0-.438-1.65,1.514,1.514,0,0,0-1.3-.594,1.536,1.536,0,0,0-1.26.6,3.091,3.091,0,0,0-.528,1.824h3.528Z"/><path class="cls-25" d="M243.709,401.032l-2.172,6.276h-.864l-2.244-6.276h.769l1.908,5.664,1.859-5.664Z"/><path d="M252.7,399.052a4,4,0,0,1,1.1.66l-.8.936a2.42,2.42,0,0,0-1.536-.588,1.76,1.76,0,0,0-1.481.744,5.152,5.152,0,0,0-.006,4.656,1.748,1.748,0,0,0,1.487.756,2.1,2.1,0,0,0,.876-.174,4.436,4.436,0,0,0,.817-.5l.744.936a3.418,3.418,0,0,1-1.063.72,3.461,3.461,0,0,1-1.433.288,3.591,3.591,0,0,1-1.909-.5,3.325,3.325,0,0,1-1.284-1.481,5.562,5.562,0,0,1-.456-2.358,5.248,5.248,0,0,1,.475-2.328,3.37,3.37,0,0,1,3.149-1.98A3.688,3.688,0,0,1,252.7,399.052Zm.312-2.881.588.673-1.668,1.44h-.96l-1.668-1.44.588-.673,1.559,1Z"/><path d="M259.908,404.608h-3.983a2.016,2.016,0,0,0,.48,1.32,1.483,1.483,0,0,0,1.08.4,2.259,2.259,0,0,0,.792-.138,3.72,3.72,0,0,0,.792-.426l.635.876a3.651,3.651,0,0,1-2.351.852,2.831,2.831,0,0,1-2.238-.888,3.528,3.528,0,0,1-.787-2.424,4.36,4.36,0,0,1,.336-1.746,2.773,2.773,0,0,1,.973-1.212,2.894,2.894,0,0,1,3.576.408,3.493,3.493,0,0,1,.732,2.357Q259.945,404.1,259.908,404.608Zm-1.487-1.068q0-1.668-1.236-1.668a1.05,1.05,0,0,0-.882.414,2.467,2.467,0,0,0-.378,1.326h2.5Z"/><path d="M265.584,401.536l-.6.9a2.985,2.985,0,0,0-1.6-.516,1.233,1.233,0,0,0-.708.174.536.536,0,0,0-.252.462.589.589,0,0,0,.107.36,1,1,0,0,0,.391.27,6.53,6.53,0,0,0,.834.282,3.661,3.661,0,0,1,1.529.732,1.638,1.638,0,0,1,.5,1.272,1.707,1.707,0,0,1-.767,1.482,3.264,3.264,0,0,1-1.908.534,4.025,4.025,0,0,1-1.422-.24,3.451,3.451,0,0,1-1.111-.661l.769-.863a2.832,2.832,0,0,0,1.727.624,1.466,1.466,0,0,0,.823-.2.642.642,0,0,0,.305-.564.756.756,0,0,0-.113-.438.945.945,0,0,0-.408-.288,8.563,8.563,0,0,0-.918-.306,3.07,3.07,0,0,1-1.429-.738,1.637,1.637,0,0,1-.455-1.182,1.57,1.57,0,0,1,.306-.948,2.03,2.03,0,0,1,.864-.66,3.207,3.207,0,0,1,1.277-.24A3.567,3.567,0,0,1,265.584,401.536Z"/><path d="M268.573,398.248v9.06h-1.537v-8.892Zm3.8,2.712-2.111,2.8,2.315,3.552h-1.763l-2.185-3.468,2.124-2.88Z"/><path d="M278.425,407.308h-1.332l-.084-.888a2.347,2.347,0,0,1-.822.8,2.27,2.27,0,0,1-1.122.264,1.662,1.662,0,0,1-1.314-.522,2.107,2.107,0,0,1-.462-1.446v-4.56h1.536v4.368a1.229,1.229,0,0,0,.186.768.723.723,0,0,0,.594.228,1.55,1.55,0,0,0,1.284-.9V400.96h1.536Z"/><path class="cls-25" d="M286.477,407.044a2.35,2.35,0,0,1-1.321.4,1.487,1.487,0,0,1-1.127-.426,1.71,1.71,0,0,1-.408-1.23V401.6h-1.056v-.564h1.056v-1.5l.7-.084v1.584h1.62l-.084.564h-1.536v4.152a1.252,1.252,0,0,0,.228.822.859.859,0,0,0,.695.27,1.906,1.906,0,0,0,.96-.276Z"/><path class="cls-25" d="M292,404.44h-4.188a2.922,2.922,0,0,0,.582,1.818,1.742,1.742,0,0,0,1.374.594,2.346,2.346,0,0,0,.87-.15,3.816,3.816,0,0,0,.822-.474l.324.443a3.548,3.548,0,0,1-.959.577,2.99,2.99,0,0,1-1.093.192,2.4,2.4,0,0,1-1.956-.853,3.588,3.588,0,0,1-.708-2.363,4.6,4.6,0,0,1,.306-1.746,2.618,2.618,0,0,1,.876-1.164,2.2,2.2,0,0,1,1.326-.414,2.162,2.162,0,0,1,1.824.81,3.565,3.565,0,0,1,.624,2.226Q292.021,404.2,292,404.44Zm-.66-.72a2.732,2.732,0,0,0-.438-1.65,1.514,1.514,0,0,0-1.3-.594,1.536,1.536,0,0,0-1.26.6,3.091,3.091,0,0,0-.528,1.824h3.528Zm-.828-5.8.313.624-2.341,1.019-.228-.407Z"/><path class="cls-25" d="M301.315,401.416a2.1,2.1,0,0,1,.438,1.4v4.488h-.7v-4.392a1.764,1.764,0,0,0-.282-1.1.953.953,0,0,0-.786-.354,1.483,1.483,0,0,0-.949.337,3.9,3.9,0,0,0-.815.96v4.548h-.7v-4.392a1.75,1.75,0,0,0-.283-1.1.948.948,0,0,0-.785-.354,1.5,1.5,0,0,0-.96.337,3.674,3.674,0,0,0-.8.96v4.548H294v-6.276h.6l.059,1.068a2.872,2.872,0,0,1,.853-.882,1.947,1.947,0,0,1,1.08-.318,1.555,1.555,0,0,1,1.008.33,1.645,1.645,0,0,1,.552.918,3,3,0,0,1,.87-.918,1.945,1.945,0,0,1,1.1-.33A1.485,1.485,0,0,1,301.315,401.416Z"/><path class="cls-25" d="M308.665,404.44h-4.188a2.922,2.922,0,0,0,.582,1.818,1.741,1.741,0,0,0,1.374.594,2.346,2.346,0,0,0,.87-.15,3.816,3.816,0,0,0,.822-.474l.324.443a3.548,3.548,0,0,1-.959.577,2.99,2.99,0,0,1-1.093.192,2.4,2.4,0,0,1-1.956-.853,3.588,3.588,0,0,1-.708-2.363,4.6,4.6,0,0,1,.306-1.746,2.618,2.618,0,0,1,.876-1.164,2.2,2.2,0,0,1,1.326-.414,2.162,2.162,0,0,1,1.824.81,3.565,3.565,0,0,1,.624,2.226Q308.689,404.2,308.665,404.44Zm-.66-.72a2.732,2.732,0,0,0-.438-1.65,1.514,1.514,0,0,0-1.3-.594,1.536,1.536,0,0,0-1.26.6,3.091,3.091,0,0,0-.528,1.824h3.528Zm-.276-5.64.312.36-1.548,1.272h-.432l-1.56-1.272.312-.36,1.464,1.007Z"/><path class="cls-25" d="M313.645,398.08l.311.36-1.548,1.272h-.431l-1.561-1.272.313-.36,1.464,1.007Zm.084,2.892-.132.66a2.089,2.089,0,0,0-.552-.072,1.276,1.276,0,0,0-1.026.462,3.777,3.777,0,0,0-.654,1.446v3.84h-.7v-6.276h.6l.059,1.4a2.511,2.511,0,0,1,.691-1.158,1.6,1.6,0,0,1,1.086-.378A2.306,2.306,0,0,1,313.729,400.972Z"/><path class="cls-25" d="M321.522,399.784a2.036,2.036,0,0,1,.594,1.512,3.377,3.377,0,0,1-.324,1.464,7.124,7.124,0,0,1-1.014,1.5q-.69.816-2.226,2.436h3.78l-.1.612h-4.5v-.588q1.644-1.752,2.358-2.6a7.215,7.215,0,0,0,1.008-1.464,3.047,3.047,0,0,0,.294-1.326,1.537,1.537,0,0,0-.414-1.128,1.472,1.472,0,0,0-1.1-.42,2.041,2.041,0,0,0-.978.228,2.809,2.809,0,0,0-.81.684l-.48-.36a3.166,3.166,0,0,1,1.038-.864,2.818,2.818,0,0,1,1.266-.276A2.177,2.177,0,0,1,321.522,399.784Z"/><path class="cls-25" d="M328.362,403.954a1.9,1.9,0,0,1,.426,1.278,2.048,2.048,0,0,1-.33,1.158,2.18,2.18,0,0,1-.924.774,3.2,3.2,0,0,1-1.362.276,3.118,3.118,0,0,1-1.35-.276,2.111,2.111,0,0,1-.9-.774,2.083,2.083,0,0,1-.318-1.146,2.323,2.323,0,0,1,1.716-2.22,2.71,2.71,0,0,1-1.038-.75,1.721,1.721,0,0,1-.33-1.086,1.845,1.845,0,0,1,.312-1.068,1.966,1.966,0,0,1,.828-.69,2.642,2.642,0,0,1,1.1-.234,2.7,2.7,0,0,1,1.1.228,2,2,0,0,1,.834.672,1.806,1.806,0,0,1,.318,1.08,1.7,1.7,0,0,1-.348,1.074,3.229,3.229,0,0,1-1.092.834A3.44,3.44,0,0,1,328.362,403.954Zm-.816,2.472a1.47,1.47,0,0,0,.51-1.194,1.6,1.6,0,0,0-.18-.8,1.582,1.582,0,0,0-.552-.552,5.938,5.938,0,0,0-1.044-.486l-.408-.156a2.587,2.587,0,0,0-1.17.8,1.948,1.948,0,0,0-.366,1.206,1.46,1.46,0,0,0,.5,1.188,2.032,2.032,0,0,0,1.344.42A2.056,2.056,0,0,0,327.546,406.426Zm-2.568-4.314a3.171,3.171,0,0,0,1.146.636l.372.131a2.954,2.954,0,0,0,.966-.743,1.5,1.5,0,0,0,.294-.936,1.364,1.364,0,0,0-.426-1.068,1.84,1.84,0,0,0-2.25,0,1.355,1.355,0,0,0-.432,1.068A1.245,1.245,0,0,0,324.978,402.112Z"/><path class="cls-25" d="M334.6,400.246a6.02,6.02,0,0,1,.636,3.078,5.944,5.944,0,0,1-.642,3.066,2.188,2.188,0,0,1-3.738,0,7.752,7.752,0,0,1,0-6.15,2.2,2.2,0,0,1,3.744.006Zm-3.66,3.066q0,3.552,1.788,3.552A1.428,1.428,0,0,0,334.05,406a8.2,8.2,0,0,0,0-5.358,1.427,1.427,0,0,0-1.326-.87Q330.935,399.772,330.936,403.312Z"/><path class="cls-25" d="M343.5,407.044a2.347,2.347,0,0,1-1.32.4,1.488,1.488,0,0,1-1.128-.426,1.714,1.714,0,0,1-.407-1.23V401.6h-1.057v-.564h1.057v-1.5l.695-.084v1.584h1.62l-.084.564H341.34v4.152a1.246,1.246,0,0,0,.229.822.857.857,0,0,0,.695.27,1.909,1.909,0,0,0,.96-.276Z"/><path class="cls-25" d="M345.456,398.416a.522.522,0,0,1,0,.72.517.517,0,0,1-.383.144.5.5,0,0,1-.373-.144.522.522,0,0,1,0-.72.5.5,0,0,1,.373-.144A.517.517,0,0,1,345.456,398.416Zm-.024,2.616v6.276h-.695v-6.276Z"/><path class="cls-25" d="M350.579,401.074a3.511,3.511,0,0,1,.936.522l-.323.456a3.578,3.578,0,0,0-.817-.438,2.467,2.467,0,0,0-.84-.138,1.633,1.633,0,0,0-1.007.288.912.912,0,0,0-.384.768.839.839,0,0,0,.329.708,3.645,3.645,0,0,0,1.194.48,3.781,3.781,0,0,1,1.542.7,1.516,1.516,0,0,1,.475,1.2,1.585,1.585,0,0,1-.649,1.332,2.6,2.6,0,0,1-1.62.492,3.46,3.46,0,0,1-1.259-.21,3.343,3.343,0,0,1-.985-.594l.384-.444a3.1,3.1,0,0,0,.858.5,2.841,2.841,0,0,0,.991.162,1.834,1.834,0,0,0,1.122-.318,1.041,1.041,0,0,0,.425-.882,1.191,1.191,0,0,0-.144-.624,1.154,1.154,0,0,0-.491-.414,5.656,5.656,0,0,0-1.021-.354,3.5,3.5,0,0,1-1.433-.66,1.355,1.355,0,0,1-.439-1.056,1.4,1.4,0,0,1,.276-.846,1.826,1.826,0,0,1,.75-.589,2.611,2.611,0,0,1,1.062-.209A3.111,3.111,0,0,1,350.579,401.074Z"/><path class="cls-25" d="M354.791,397.924l.313.624-2.34,1.019-.229-.407Zm-.551,3.108v6.276h-.7v-6.276Z"/><path class="cls-25" d="M359.891,401.05a2.638,2.638,0,0,1,.816.486l-.348.456a2.247,2.247,0,0,0-.642-.372,2.186,2.186,0,0,0-.75-.12,1.692,1.692,0,0,0-1.416.69,3.257,3.257,0,0,0-.528,2.01,3.132,3.132,0,0,0,.522,1.968,1.7,1.7,0,0,0,1.41.66,2.1,2.1,0,0,0,.762-.132,2.847,2.847,0,0,0,.69-.4l.336.468a2.706,2.706,0,0,1-1.8.672,2.545,2.545,0,0,1-1.4-.384,2.509,2.509,0,0,1-.93-1.11,4.165,4.165,0,0,1-.33-1.734,4.3,4.3,0,0,1,.33-1.746,2.648,2.648,0,0,1,.93-1.158,2.416,2.416,0,0,1,1.392-.408A2.845,2.845,0,0,1,359.891,401.05Z"/><path class="cls-25" d="M243.631,414.758a4.422,4.422,0,0,1-.012,4.8,2.608,2.608,0,0,1-3.9.012,3.71,3.71,0,0,1-.7-2.394,4.329,4.329,0,0,1,.324-1.74,2.419,2.419,0,0,1,2.34-1.536A2.381,2.381,0,0,1,243.631,414.758Zm-3.366.413a4.237,4.237,0,0,0-.006,4,1.641,1.641,0,0,0,1.41.684,1.672,1.672,0,0,0,1.422-.684,4.224,4.224,0,0,0,.012-4,1.82,1.82,0,0,0-2.838,0Z"/><path class="cls-25" d="M250.645,414.74a5.022,5.022,0,0,1-.03,4.812,2.034,2.034,0,0,1-1.758.888,2.107,2.107,0,0,1-1.026-.252,2.361,2.361,0,0,1-.774-.672l-.072.792h-.612v-8.832l.7-.084v3.516a2.255,2.255,0,0,1,1.883-1.008A1.96,1.96,0,0,1,250.645,414.74Zm-.606,4.434a3.67,3.67,0,0,0,.462-2.034q0-2.664-1.692-2.664a1.667,1.667,0,0,0-.972.282,3.129,3.129,0,0,0-.768.8v3.3a2.4,2.4,0,0,0,.72.738,1.7,1.7,0,0,0,.936.27A1.489,1.489,0,0,0,250.039,419.174Z"/><path class="cls-25" d="M257.774,417.44h-4.189a2.928,2.928,0,0,0,.582,1.818,1.742,1.742,0,0,0,1.374.594,2.346,2.346,0,0,0,.87-.15,3.82,3.82,0,0,0,.823-.474l.324.443a3.568,3.568,0,0,1-.96.577,2.982,2.982,0,0,1-1.093.192,2.4,2.4,0,0,1-1.956-.853,3.588,3.588,0,0,1-.708-2.363,4.6,4.6,0,0,1,.307-1.746,2.618,2.618,0,0,1,.876-1.164,2.2,2.2,0,0,1,1.326-.414,2.16,2.16,0,0,1,1.823.81,3.565,3.565,0,0,1,.624,2.226C257.8,417.112,257.789,417.28,257.774,417.44Zm-.66-.72a2.732,2.732,0,0,0-.439-1.65,1.514,1.514,0,0,0-1.3-.594,1.535,1.535,0,0,0-1.259.6,3.083,3.083,0,0,0-.529,1.824h3.529Zm-.829-5.8.313.624-2.341,1.019-.227-.407Z"/><path class="cls-25" d="M263.089,414.032v.54l-3.5,5.136h3.48l-.073.6h-4.223v-.54l3.5-5.136h-3.216v-.6Z"/><path class="cls-25" d="M268.843,414.4a2.049,2.049,0,0,1,.45,1.416v4.488h-.7v-4.392a1.671,1.671,0,0,0-.3-1.1,1.109,1.109,0,0,0-.888-.349,1.784,1.784,0,0,0-1.062.331,3.614,3.614,0,0,0-.882.966v4.548h-.695v-6.276h.6l.073,1.068a2.928,2.928,0,0,1,.912-.882,2.252,2.252,0,0,1,1.187-.318A1.65,1.65,0,0,1,268.843,414.4Z"/><path class="cls-25" d="M273.025,410.924l.312.624L271,412.567l-.228-.407Zm-.552,3.108v6.276h-.695v-6.276Z"/><path class="cls-25" d="M278.125,414.05a2.643,2.643,0,0,1,.817.486l-.349.456a2.247,2.247,0,0,0-.642-.372,2.178,2.178,0,0,0-.75-.12,1.693,1.693,0,0,0-1.416.69,3.263,3.263,0,0,0-.528,2.01,3.125,3.125,0,0,0,.523,1.968,1.7,1.7,0,0,0,1.41.66,2.1,2.1,0,0,0,.761-.132,2.87,2.87,0,0,0,.691-.4l.336.468a2.71,2.71,0,0,1-1.8.672,2.542,2.542,0,0,1-1.4-.384,2.511,2.511,0,0,1-.931-1.11,4.165,4.165,0,0,1-.33-1.734,4.3,4.3,0,0,1,.33-1.746,2.649,2.649,0,0,1,.931-1.158,2.41,2.41,0,0,1,1.391-.408A2.841,2.841,0,0,1,278.125,414.05Z"/><path class="cls-25" d="M284.713,414.41a2.04,2.04,0,0,1,.456,1.41v4.488h-.7v-4.392q0-1.452-1.188-1.453a1.782,1.782,0,0,0-1.062.331,3.614,3.614,0,0,0-.882.966v4.548h-.695v-8.832l.695-.084v3.684a2.485,2.485,0,0,1,2.076-1.176A1.648,1.648,0,0,1,284.713,414.41Z"/><path class="cls-25" d="M295.477,411.476v8.832h-.6l-.084-.96a2.068,2.068,0,0,1-1.885,1.092,2.012,2.012,0,0,1-1.721-.87,3.967,3.967,0,0,1-.63-2.37,4.655,4.655,0,0,1,.294-1.717,2.621,2.621,0,0,1,.851-1.163,2.126,2.126,0,0,1,1.315-.42,2.181,2.181,0,0,1,1.764.852v-3.36Zm-1.446,8.1a2.631,2.631,0,0,0,.75-.876v-3.276a1.973,1.973,0,0,0-1.644-.948,1.569,1.569,0,0,0-1.351.708,3.386,3.386,0,0,0-.485,2,3.594,3.594,0,0,0,.456,1.986,1.432,1.432,0,0,0,1.26.69A1.734,1.734,0,0,0,294.031,419.576Z"/><path class="cls-25" d="M302.448,417.44H298.26a2.922,2.922,0,0,0,.582,1.818,1.742,1.742,0,0,0,1.374.594,2.346,2.346,0,0,0,.87-.15,3.792,3.792,0,0,0,.822-.474l.325.443a3.568,3.568,0,0,1-.96.577,2.986,2.986,0,0,1-1.093.192,2.4,2.4,0,0,1-1.956-.853,3.588,3.588,0,0,1-.708-2.363,4.579,4.579,0,0,1,.307-1.746,2.623,2.623,0,0,1,.875-1.164,2.2,2.2,0,0,1,1.327-.414,2.161,2.161,0,0,1,1.823.81,3.565,3.565,0,0,1,.624,2.226Q302.472,417.2,302.448,417.44Zm-.66-.72a2.732,2.732,0,0,0-.438-1.65,1.514,1.514,0,0,0-1.3-.594,1.538,1.538,0,0,0-1.26.6,3.091,3.091,0,0,0-.528,1.824h3.528Zm-.276-5.64.312.36-1.547,1.272h-.433l-1.56-1.272.312-.36,1.464,1.007Z"/><path class="cls-25" d="M307.309,420.044a2.349,2.349,0,0,1-1.32.4,1.488,1.488,0,0,1-1.128-.426,1.71,1.71,0,0,1-.408-1.23V414.6H303.4v-.564h1.056v-1.5l.7-.084v1.584h1.62l-.084.564h-1.536v4.152a1.252,1.252,0,0,0,.228.822.86.86,0,0,0,.7.27,1.905,1.905,0,0,0,.959-.276Z"/><path class="cls-25" d="M309.792,410.924l.313.624-2.34,1.019-.229-.407Zm-.552,3.108v6.276h-.695v-6.276Z"/><path class="cls-25" d="M70.325,57.271a4.671,4.671,0,0,1,1.289.77l-.939,1.092a2.826,2.826,0,0,0-1.792-.686,2.051,2.051,0,0,0-1.728.868,4.569,4.569,0,0,0-.652,2.73,4.59,4.59,0,0,0,.645,2.7,2.038,2.038,0,0,0,1.735.882,2.461,2.461,0,0,0,1.023-.2,5.173,5.173,0,0,0,.952-.581l.867,1.092a3.96,3.96,0,0,1-1.238.84,4.048,4.048,0,0,1-1.673.336,4.2,4.2,0,0,1-2.227-.588,3.881,3.881,0,0,1-1.5-1.729,6.484,6.484,0,0,1-.532-2.751,6.123,6.123,0,0,1,.554-2.716,3.929,3.929,0,0,1,3.674-2.31A4.293,4.293,0,0,1,70.325,57.271Z"/><path class="cls-25" d="M78.74,63.753H74.091a2.347,2.347,0,0,0,.561,1.54,1.727,1.727,0,0,0,1.259.462,2.64,2.64,0,0,0,.924-.161,4.29,4.29,0,0,0,.924-.5l.742,1.022a4.261,4.261,0,0,1-2.744.994,3.3,3.3,0,0,1-2.611-1.036,4.112,4.112,0,0,1-.917-2.828,5.073,5.073,0,0,1,.392-2.037A3.23,3.23,0,0,1,73.755,59.8a3.377,3.377,0,0,1,4.172.476,4.072,4.072,0,0,1,.854,2.751Q78.781,63.165,78.74,63.753ZM77,62.507q0-1.945-1.442-1.946a1.225,1.225,0,0,0-1.029.483,2.877,2.877,0,0,0-.441,1.547H77Z"/><path class="cls-25" d="M80.805,66.616a1.935,1.935,0,0,1-.483-1.407v-8.68l1.792-.2v8.82q0,.517.419.518a1.3,1.3,0,0,0,.42-.07l.378,1.26a2.861,2.861,0,0,1-1.189.252A1.78,1.78,0,0,1,80.805,66.616Z"/><path class="cls-25" d="M86.314,56.333V66.9H84.522V56.529ZM90.751,59.5l-2.464,3.262,2.7,4.144H88.932l-2.548-4.046,2.478-3.36Z"/><path class="cls-25" d="M97.878,63.753H93.23a2.347,2.347,0,0,0,.56,1.54,1.731,1.731,0,0,0,1.26.462,2.644,2.644,0,0,0,.924-.161,4.29,4.29,0,0,0,.924-.5l.742,1.022a4.261,4.261,0,0,1-2.744.994,3.306,3.306,0,0,1-2.612-1.036,4.117,4.117,0,0,1-.917-2.828,5.056,5.056,0,0,1,.393-2.037A3.23,3.23,0,0,1,92.894,59.8a3.377,3.377,0,0,1,4.172.476,4.072,4.072,0,0,1,.854,2.751Q97.92,63.165,97.878,63.753Zm-1.736-1.246q0-1.945-1.443-1.946a1.223,1.223,0,0,0-1.028.483,2.877,2.877,0,0,0-.441,1.547h2.912Z"/><path class="cls-25" d="M108.812,59.9a2.415,2.415,0,0,1,.531,1.645V66.9h-1.792V61.821q0-1.189-.811-1.19a1.107,1.107,0,0,0-.75.273,3.437,3.437,0,0,0-.651.847V66.9h-1.792V61.821q0-1.189-.811-1.19a1.125,1.125,0,0,0-.763.273,3.343,3.343,0,0,0-.651.847V66.9H99.53V59.5h1.553l.141.966a2.534,2.534,0,0,1,2.141-1.176,1.9,1.9,0,0,1,1.114.329,1.84,1.84,0,0,1,.678.917,3.462,3.462,0,0,1,.988-.924,2.358,2.358,0,0,1,1.238-.322A1.8,1.8,0,0,1,108.812,59.9Z"/><path class="cls-25" d="M112.828,60.19a1.122,1.122,0,0,1,0,1.6,1.1,1.1,0,0,1-.811.336,1.067,1.067,0,0,1-.791-.336,1.15,1.15,0,0,1-.007-1.6,1.073,1.073,0,0,1,.8-.329A1.116,1.116,0,0,1,112.828,60.19Zm0,4.984a1.122,1.122,0,0,1,0,1.6,1.1,1.1,0,0,1-.811.336,1.067,1.067,0,0,1-.791-.336,1.15,1.15,0,0,1-.007-1.6,1.073,1.073,0,0,1,.8-.329A1.116,1.116,0,0,1,112.828,65.174Z"/><path class="cls-25" d="M122.118,57.663a2.49,2.49,0,0,1,1.421,2.3,3.593,3.593,0,0,1-.342,1.533,7.071,7.071,0,0,1-1.142,1.631q-.8.9-2.338,2.366h4.032l-.2,1.414h-5.866V65.587q1.793-1.82,2.569-2.695a8.121,8.121,0,0,0,1.107-1.5,2.753,2.753,0,0,0,.329-1.3,1.269,1.269,0,0,0-1.359-1.372,1.934,1.934,0,0,0-.959.231,3.273,3.273,0,0,0-.861.763l-1.092-.868a3.691,3.691,0,0,1,3.052-1.54A3.612,3.612,0,0,1,122.118,57.663Z"/><path class="cls-25" d="M130.455,58.811h-3.528v2.338a3.164,3.164,0,0,1,1.428-.35,2.708,2.708,0,0,1,1.4.364,2.476,2.476,0,0,1,.959,1.05,3.591,3.591,0,0,1,.343,1.624,3.324,3.324,0,0,1-.434,1.708,2.977,2.977,0,0,1-1.232,1.155,3.972,3.972,0,0,1-1.848.413,3.813,3.813,0,0,1-1.659-.343,4.254,4.254,0,0,1-1.31-.987l1.023-.952a2.5,2.5,0,0,0,1.9.9,1.627,1.627,0,0,0,1.253-.49,1.984,1.984,0,0,0,.455-1.4q0-1.749-1.512-1.75a2.271,2.271,0,0,0-.6.077,3.372,3.372,0,0,0-.616.245h-1.274V57.481h5.46Z"/><path class="cls-25" d="M138.939,63.375v1.372h-1.134V66.9h-1.75V64.747h-4V63.515l2.744-6.216,1.527.574-2.409,5.5h2.157l.181-2.366h1.554v2.366Z"/><path class="cls-25" d="M153.149,59.9a2.415,2.415,0,0,1,.531,1.645V66.9h-1.792V61.821q0-1.189-.812-1.19a1.107,1.107,0,0,0-.749.273,3.413,3.413,0,0,0-.651.847V66.9h-1.792V61.821q0-1.189-.811-1.19a1.125,1.125,0,0,0-.763.273,3.366,3.366,0,0,0-.652.847V66.9h-1.792V59.5h1.554l.141.966a2.534,2.534,0,0,1,2.141-1.176,1.9,1.9,0,0,1,1.114.329,1.84,1.84,0,0,1,.678.917,3.462,3.462,0,0,1,.988-.924,2.358,2.358,0,0,1,1.238-.322A1.8,1.8,0,0,1,153.149,59.9Z"/><path class="cls-25" d="M157.468,56.06a1.055,1.055,0,0,1,.314.777,1.031,1.031,0,0,1-.314.77,1.123,1.123,0,0,1-.819.308,1.1,1.1,0,0,1-.805-.308,1.032,1.032,0,0,1-.315-.77,1.056,1.056,0,0,1,.315-.777,1.09,1.09,0,0,1,.805-.315A1.108,1.108,0,0,1,157.468,56.06Zm.091,3.437V66.9h-1.792V59.5Z"/><path class="cls-25" d="M160.128,66.616a1.935,1.935,0,0,1-.483-1.407v-8.68l1.792-.2v8.82q0,.517.42.518a1.312,1.312,0,0,0,.42-.07l.378,1.26a2.869,2.869,0,0,1-1.19.252A1.78,1.78,0,0,1,160.128,66.616Z"/><path class="cls-25" d="M165.546,56.06a1.056,1.056,0,0,1,.315.777,1.032,1.032,0,0,1-.315.77,1.123,1.123,0,0,1-.819.308,1.1,1.1,0,0,1-.805-.308,1.032,1.032,0,0,1-.315-.77,1.056,1.056,0,0,1,.315-.777,1.09,1.09,0,0,1,.805-.315A1.108,1.108,0,0,1,165.546,56.06Zm.091,3.437V66.9h-1.792V59.5Z"/><path class="cls-25" d="M173.371,60.33a4.183,4.183,0,0,1,.917,2.863,4.75,4.75,0,0,1-.42,2.051,3.187,3.187,0,0,1-1.2,1.379,3.447,3.447,0,0,1-1.862.49,3.246,3.246,0,0,1-2.562-1.043,4.186,4.186,0,0,1-.924-2.877,4.691,4.691,0,0,1,.421-2.044,3.173,3.173,0,0,1,1.211-1.372,3.467,3.467,0,0,1,1.868-.49A3.224,3.224,0,0,1,173.371,60.33Zm-4.165,2.863a3.679,3.679,0,0,0,.4,1.939A1.457,1.457,0,0,0,172,65.125a3.684,3.684,0,0,0,.4-1.932,3.644,3.644,0,0,0-.4-1.925,1.315,1.315,0,0,0-1.183-.623Q169.205,60.645,169.206,63.193Z"/><path class="cls-25" d="M181.464,59.882a2.348,2.348,0,0,1,.553,1.659V66.9h-1.792V61.821a1.414,1.414,0,0,0-.232-.924.848.848,0,0,0-.678-.266,1.328,1.328,0,0,0-.833.287,3.269,3.269,0,0,0-.721.833V66.9h-1.792V59.5h1.554l.14.966a2.753,2.753,0,0,1,2.254-1.176A2.008,2.008,0,0,1,181.464,59.882Z"/><path class="cls-25" d="M190.025,66.9h-1.554l-.1-1.036a2.727,2.727,0,0,1-.959.938,2.646,2.646,0,0,1-1.308.308,1.938,1.938,0,0,1-1.533-.609,2.454,2.454,0,0,1-.54-1.687V59.5h1.792v5.1a1.437,1.437,0,0,0,.217.9.846.846,0,0,0,.694.266,1.81,1.81,0,0,0,1.5-1.05V59.5h1.792Zm-1.708-11.459a1.69,1.69,0,0,1-.007,2.387,1.938,1.938,0,0,1-2.576,0,1.682,1.682,0,0,1,0-2.387,1.777,1.777,0,0,1,1.295-.483A1.756,1.756,0,0,1,188.317,55.444Zm-1.792.651a.774.774,0,0,0-.182.546.748.748,0,0,0,.182.539.666.666,0,0,0,.5.189.649.649,0,0,0,.49-.189.748.748,0,0,0,.181-.539.774.774,0,0,0-.181-.546.635.635,0,0,0-.49-.2A.652.652,0,0,0,186.525,56.1Z"/></svg>